<svg id="Layer_1" data-name="Layer 1" xmlns="http://www.w3.org/2000/svg" xmlns:xlink="http://www.w3.org/1999/xlink" viewBox="0 0 16 16"><defs><style>.cls-1{fill:#f0f8ff;}.cls-2{fill:#004be0;}.cls-3{fill:url(#linear-gradient);}.cls-4{fill:url(#linear-gradient-2);}</style><linearGradient id="linear-gradient" x1="8.79" y1="10.26" x2="12.03" y2="7.02" gradientUnits="userSpaceOnUse"><stop offset="0" stop-color="#0074ff"/><stop offset="1" stop-color="#0074ff" stop-opacity="0.7"/></linearGradient><linearGradient id="linear-gradient-2" x1="-1179.92" y1="387.33" x2="-1175.34" y2="387.33" gradientTransform="translate(564.42 -1099.23) rotate(-45)" gradientUnits="userSpaceOnUse"><stop offset="0" stop-color="#0074ff" stop-opacity="0.7"/><stop offset="1" stop-color="#0074ff"/></linearGradient></defs><title>Codedigm_Assets</title><circle class="cls-1" cx="8" cy="8" r="8"/><path class="cls-2" d="M12,8.11A.77.77,0,0,0,12,7L6.75,1.74h0a1.55,1.55,0,0,0,0,2.18l3.64,3.64,1.1,1.1Z"/><path class="cls-2" d="M4,7.89A.77.77,0,0,0,4,9l5.29,5.28h0a1.55,1.55,0,0,0,0-2.18L5.61,8.44l-1.1-1.1Z"/><path class="cls-3" d="M10.39,7.56,9.3,8.66a1.5,1.5,0,0,0,0,2.11l0,0L12,8.11A.77.77,0,0,0,12,7l-.56-.55Z"/><path class="cls-4" d="M5.61,8.44,6.7,7.34a1.5,1.5,0,0,0,0-2.11l0,0L4,7.89A.77.77,0,0,0,4,9l.55.55Z"/></svg>