<svg xmlns="http://www.w3.org/2000/svg" xmlns:xlink="http://www.w3.org/1999/xlink" viewBox="0 0 379.91 279.25"><defs><style>.cls-1,.cls-12,.cls-16,.cls-20,.cls-22,.cls-24,.cls-28,.cls-3,.cls-9{fill:none;}.cls-2{fill:#e9ebff;}.cls-3{stroke:#dae0ef;}.cls-20,.cls-28,.cls-3,.cls-9{stroke-miterlimit:10;}.cls-4{fill:#ff5930;}.cls-5{fill:#ffd373;}.cls-6{fill:url(#linear-gradient);}.cls-7{fill:#6936d8;}.cls-8{fill:#73b3ff;}.cls-20,.cls-28,.cls-9{stroke:#fff;}.cls-9{stroke-width:0.7px;}.cls-10{clip-path:url(#clip-path);}.cls-11{fill:#141c8c;}.cls-12,.cls-16,.cls-22,.cls-24{stroke:#282828;stroke-linecap:round;stroke-linejoin:round;}.cls-12{stroke-width:0.74px;}.cls-13{fill:#ffb1a5;}.cls-14{fill:#f3978e;}.cls-15{fill:url(#linear-gradient-2);}.cls-16{stroke-width:0.81px;}.cls-17{fill:url(#linear-gradient-3);}.cls-18{fill:url(#linear-gradient-4);}.cls-19{fill:#282828;}.cls-20{stroke-width:1.03px;}.cls-21{fill:#002b5d;}.cls-22{stroke-width:0.71px;}.cls-23{fill:url(#linear-gradient-5);}.cls-24{stroke-width:0.78px;}.cls-25{fill:url(#linear-gradient-6);}.cls-26{fill:url(#linear-gradient-7);}.cls-27{fill:#fff;}</style><linearGradient id="linear-gradient" x1="73.66" y1="64.09" x2="79.12" y2="64.09" gradientUnits="userSpaceOnUse"><stop offset="0" stop-color="#2432ff"/><stop offset="1" stop-color="#1946ff"/></linearGradient><clipPath id="clip-path"><rect class="cls-1" x="30.24" y="48.05" width="318.85" height="190.08"/></clipPath><linearGradient id="linear-gradient-2" x1="150.62" y1="171.08" x2="178.74" y2="142.96" gradientUnits="userSpaceOnUse"><stop offset="0.25" stop-color="#2432ff"/><stop offset="0.27" stop-color="#2039ff"/><stop offset="0.33" stop-color="#144fff"/><stop offset="0.41" stop-color="#0b60ff"/><stop offset="0.5" stop-color="#056bff"/><stop offset="0.64" stop-color="#0172ff"/><stop offset="1" stop-color="#0074ff"/></linearGradient><linearGradient id="linear-gradient-3" x1="88.09" y1="168.67" x2="126.36" y2="130.41" gradientUnits="userSpaceOnUse"><stop offset="0" stop-color="#2432ff"/><stop offset="0.02" stop-color="#2039ff"/><stop offset="0.11" stop-color="#144eff"/><stop offset="0.21" stop-color="#0b5fff"/><stop offset="0.34" stop-color="#056bff"/><stop offset="0.51" stop-color="#0172ff"/><stop offset="1" stop-color="#0074ff"/></linearGradient><linearGradient id="linear-gradient-4" x1="136.24" y1="223.58" x2="136.24" y2="121.61" gradientUnits="userSpaceOnUse"><stop offset="0" stop-color="#2432ff"/><stop offset="0.1" stop-color="#1c41ff"/><stop offset="0.28" stop-color="#0f58ff"/><stop offset="0.47" stop-color="#0768ff"/><stop offset="0.7" stop-color="#0271ff"/><stop offset="1" stop-color="#0074ff"/></linearGradient><linearGradient id="linear-gradient-5" x1="188.59" y1="184.86" x2="232.05" y2="141.4" gradientUnits="userSpaceOnUse"><stop offset="0" stop-color="#ffb000"/><stop offset="0.2" stop-color="#ffbb25"/><stop offset="0.43" stop-color="#ffc647"/><stop offset="0.64" stop-color="#ffcd5f"/><stop offset="0.84" stop-color="#ffd16e"/><stop offset="1" stop-color="#ffd373"/></linearGradient><linearGradient id="linear-gradient-6" x1="249.28" y1="148.45" x2="286.3" y2="185.47" gradientTransform="translate(38.1 -54.33) rotate(11.12)" gradientUnits="userSpaceOnUse"><stop offset="0" stop-color="#ffd373"/><stop offset="0.15" stop-color="#ffd16b"/><stop offset="0.38" stop-color="#ffca56"/><stop offset="0.66" stop-color="#ffc034"/><stop offset="0.97" stop-color="#ffb105"/><stop offset="1" stop-color="#ffb000"/></linearGradient><linearGradient id="linear-gradient-7" x1="238.31" y1="129.34" x2="238.31" y2="228" gradientUnits="userSpaceOnUse"><stop offset="0" stop-color="#ffd373"/><stop offset="1" stop-color="#ffb000"/></linearGradient></defs><title>About Us</title><g id="Layer_2" data-name="Layer 2"><g id="Illustration"><path class="cls-2" d="M80.25,237.81h207.4c34.24-19.91,28.06-60.67,18.57-67.52-13-9.37-33.33,25.91-46,19.46-36.27-18.41,39.14-70.27,8.75-82.28-19.77-7.82-33.5,52-57.61,31.11-12.55-10.87-1.15-26.7-3.55-39.54-3.81-20.37-36.67-9.92-65.5,41.06-12.16,21.49-28.82-18.64-42.41-23.36-12.62-4.38-50.71,15.4-11.31,60C101.11,190.87,39.28,196.84,80.25,237.81Z"/><line class="cls-3" x1="38.27" y1="73.67" x2="336.44" y2="73.67"/><rect class="cls-3" x="38.27" y="54.12" width="298.17" height="184.48" rx="3.89"/><path class="cls-4" d="M57.92,64.09a2.73,2.73,0,1,1-2.73-2.72A2.73,2.73,0,0,1,57.92,64.09Z"/><path class="cls-5" d="M68.52,64.09a2.73,2.73,0,1,1-2.73-2.72A2.73,2.73,0,0,1,68.52,64.09Z"/><path class="cls-6" d="M79.12,64.09a2.73,2.73,0,1,1-2.73-2.72A2.73,2.73,0,0,1,79.12,64.09Z"/><rect class="cls-7" x="318.45" y="83.74" width="43.61" height="37.04" rx="3.6" transform="translate(680.51 204.52) rotate(180)"/><rect class="cls-5" x="6.17" y="139.83" width="42.59" height="41.4" rx="3.96"/><path class="cls-7" d="M62.81,37.1H2.26A2.27,2.27,0,0,1,0,34.83H0a2.26,2.26,0,0,1,2.26-2.26H62.81a2.27,2.27,0,0,1,2.27,2.26h0A2.27,2.27,0,0,1,62.81,37.1Z"/><path class="cls-8" d="M377.65,185H348.26a2.27,2.27,0,0,1-2.27-2.26h0a2.27,2.27,0,0,1,2.27-2.27h29.39a2.26,2.26,0,0,1,2.26,2.27h0A2.26,2.26,0,0,1,377.65,185Z"/><rect class="cls-7" x="351.76" y="204.4" width="7.01" height="6.79" rx="1.71"/><rect class="cls-8" x="11.39" y="220.09" width="7.01" height="6.79" rx="1.71"/><rect class="cls-5" x="229.96" y="16.57" width="63.36" height="18.19" rx="1.8"/><line class="cls-9" x1="238.59" y1="23.05" x2="281.09" y2="23.05"/><line class="cls-9" x1="238.59" y1="27.41" x2="255.9" y2="27.41"/><polygon class="cls-5" points="236.86 32.7 236.86 39.79 245.78 32.7 236.86 32.7"/><path class="cls-8" d="M114.54,0h30.16a3.86,3.86,0,0,1,3.86,3.86V32a3.86,3.86,0,0,1-3.86,3.86H115.77a5.09,5.09,0,0,1-5.09-5.09V3.86A3.86,3.86,0,0,1,114.54,0Z"/><rect class="cls-1" x="65.73" y="39.48" width="274.23" height="198.65"/><g class="cls-10"><polygon class="cls-11" points="106.44 219.3 106.47 276.55 134.79 276.55 136.97 219.3 106.44 219.3"/><polygon class="cls-11" points="167.93 219.3 167.9 276.55 139.58 276.55 137.4 219.3 167.93 219.3"/><rect class="cls-11" x="123.18" y="219.3" width="29.28" height="19.89"/><line class="cls-12" x1="127.27" y1="239.19" x2="147.47" y2="239.19"/><path class="cls-13" d="M185.82,169.34c1.76,19.4-.1,33.53.42,69.23l-16.91.7-2.52-66.81Z"/><path class="cls-14" d="M168.9,184.48s10.47-1,17.62-5.68l-.18-4.16L168.89,177Z"/><path class="cls-15" d="M152.11,124.68s33.25,8.36,39.27,50.56c0,0-16.27,7-32.58,4l3.67-14.12Z"/><path class="cls-13" d="M52.79,142.22l24.76,29.24L70,192.79S51.16,166.63,42.7,146.41Z"/><path class="cls-13" d="M53.61,143.28s-8.69,4.91-10.91,3.13c-3.86-3.1-7.05-14.47-7.05-14.47s16.25-6.12,16.1-5.88S53.61,143.28,53.61,143.28Z"/><path class="cls-13" d="M53.61,143.28c-.16-.88,3.22-10.32,4.38-13.86a1.57,1.57,0,0,0-1.24-2h0a1.81,1.81,0,0,0-2,.83l-4.07,7Z"/><path class="cls-13" d="M53.31,133.07l-2.8-13.92a1.75,1.75,0,0,0-2-1.39h0a1.49,1.49,0,0,0-1.23,1.67l1.22,10.37Z"/><path class="cls-13" d="M47.74,127.94l-3.8-10a1.74,1.74,0,0,0-2.16-1.06h0a1.49,1.49,0,0,0-1,1.78l2.82,11.49Z"/><path class="cls-13" d="M43.66,130.87l-4.81-9.77a1.91,1.91,0,0,0-2.44-.94h0a1.67,1.67,0,0,0-.86,2.2l3.83,9.23Z"/><path class="cls-13" d="M35.65,131.94l-3.78-6a1.36,1.36,0,0,1,.66-1.81h0a1.55,1.55,0,0,1,1.89.55l5,6.89Z"/><path class="cls-16" d="M52.55,132s-5.67-.6-6.25,7"/><path class="cls-13" d="M65,182.82s4.66,16.11,13.94,14,23.74-22,23.74-22L99.39,141l-26,32Z"/><path class="cls-14" d="M81.43,163.09S90.22,176.35,97.72,181l4.91-6.19L83.69,160.18Z"/><path class="cls-17" d="M119.89,123.94s-25.81,5.82-39.57,35.82c0,0,8.32,12.53,21.64,18.09l8.92-10.93Z"/><path class="cls-18" d="M119.89,123.85a64.63,64.63,0,0,0-16.42,12l2,87.7H169l-.2-87.24s-8-7.84-16.69-11.66C144.73,121.43,127.06,120.18,119.89,123.85Z"/><path class="cls-12" d="M141.12,148.91H158.8a0,0,0,0,1,0,0v8.84a8.84,8.84,0,0,1-8.84,8.84h0a8.84,8.84,0,0,1-8.84-8.84v-8.84A0,0,0,0,1,141.12,148.91Z"/><line class="cls-12" x1="168.9" y1="179.59" x2="169.72" y2="150.9"/><line class="cls-12" x1="104.45" y1="174.8" x2="103.07" y2="149.94"/><path class="cls-19" d="M120.64,91.82,118,78.72a9.28,9.28,0,0,1-.06-4.26c.84-2.57,3.93-7.48,9.2-5.23l1.13,5.19s-5.47,1.1-7.66,8.26Z"/><path class="cls-19" d="M126.74,71.93c-.1,1.72-1.62,9.26-7,12C119.78,83.93,115.1,73.9,126.74,71.93Z"/><path class="cls-13" d="M145.48,121.44h0V99.19H125v22.25l-6.11,2.78s1.43,9.22,16.58,9.43,16.67-9,16.67-9Z"/><path class="cls-19" d="M127.13,69.23s3.76-9.93,15.37-4.65c7,3.19,9,7.48,9.83,10.51a12,12,0,0,1,.31,3.54l-2.8,13.19-11-18.24-10.61.84Z"/><path class="cls-14" d="M149.84,91.82a3.41,3.41,0,0,1,4.23-1.12c2.85,1.09,1.56,8-2.71,8.9a3.4,3.4,0,0,1-2.74-.72S149.67,93.76,149.84,91.82Z"/><path class="cls-12" d="M153.51,93.15s-2.39-.8-4.09,2.72"/><path class="cls-14" d="M120.64,91.82a3.43,3.43,0,0,0-4.24-1.12c-2.85,1.09-1.56,8,2.72,8.9a3.41,3.41,0,0,0,2.74-.72S120.8,93.76,120.64,91.82Z"/><path class="cls-12" d="M117,93.15s2.39-.8,4.08,2.72"/><path class="cls-13" d="M150.12,85.25c0,4.17-.41,12.91-3,18.1-2.41,4.87-6.4,7.49-11.63,7.64s-9.12-1.86-12.24-8.18-3-17.48-3-17.48,0-14.92,14.74-14.92C150.58,70.41,150.12,85.25,150.12,85.25Z"/><path class="cls-19" d="M125.12,105.93s1.72,8.72,9.31,9.72c8.73,1.15,11-9.5,11-9.5s-3.86,4.83-10,4.84A13.35,13.35,0,0,1,125.12,105.93Z"/><path class="cls-12" d="M134.16,91.44v3.45a1,1,0,0,0,.09.42,1.1,1.1,0,0,0,1.32.62l1.14-.3"/><path class="cls-19" d="M130.81,89.79a1.34,1.34,0,1,1-1.34-1.34A1.34,1.34,0,0,1,130.81,89.79Z"/><path class="cls-19" d="M143.39,89.79a1.34,1.34,0,1,1-1.34-1.34A1.34,1.34,0,0,1,143.39,89.79Z"/><path class="cls-19" d="M137.62,83.12l9,2.33s-.41-2.53-4.1-3.45S137.62,83.12,137.62,83.12Z"/><path class="cls-19" d="M132,83.12l-9,2.33s.41-2.53,4.11-3.45S132,83.12,132,83.12Z"/><path class="cls-12" d="M130.21,98.37s1.34,1,4.84,1a12.24,12.24,0,0,0,5.17-1"/><circle class="cls-20" cx="128.11" cy="90.18" r="5.7"/><circle class="cls-20" cx="142.12" cy="90.18" r="5.7"/><path class="cls-20" d="M133.81,90.18a1.85,1.85,0,0,1,2.6,0"/><line class="cls-20" x1="122.4" y1="90.18" x2="120.49" y2="90.14"/><line class="cls-20" x1="147.82" y1="90.18" x2="149.96" y2="90.15"/><path class="cls-19" d="M125.12,72.27s2.74,7.79,15.1,7.55c8.4-.17,10.41,5.91,10.41,5.91s-1.47-13.58-1.85-13.46S136,69,136,69Z"/><polygon class="cls-21" points="267.15 223.85 267.12 279.25 239.71 279.25 237.61 223.85 267.15 223.85"/><polygon class="cls-21" points="207.65 223.85 207.68 279.25 235.08 279.25 237.19 223.85 207.65 223.85"/><rect class="cls-21" x="222.62" y="223.86" width="28.33" height="19.24" transform="translate(473.56 466.95) rotate(-180)"/><line class="cls-22" x1="246.99" y1="243.1" x2="227.45" y2="243.1"/><path class="cls-13" d="M190.34,175.52c-1.7,18.77.09,32.44-.4,67l16.35.68,2.44-64.64Z"/><path class="cls-14" d="M206.71,190.16s-10.13-.92-17.05-5.49l.18-4,16.88,2.3Z"/><path class="cls-23" d="M223,132.3s-36.79,8.27-38,48.93c0,0,15.75,6.82,31.52,3.89l-3.55-13.66Z"/><path class="cls-13" d="M320.6,165.08l-29,23.14,3.21,21.67s22.74-21.33,34.54-38.95Z"/><path class="cls-13" d="M319.63,165.93s7.34,6.29,9.77,5c4.25-2.22,9.4-12.42,9.4-12.42s-14.29-8.85-14.19-8.59S319.63,165.93,319.63,165.93Z"/><path class="cls-13" d="M319.63,165.93c.31-.8-1.13-10.39-1.57-14a1.52,1.52,0,0,1,1.54-1.64h0a1.74,1.74,0,0,1,1.75,1.16l2.57,7.38Z"/><path class="cls-13" d="M321.82,156.3l5.25-12.7a1.71,1.71,0,0,1,2.19-.94h0a1.46,1.46,0,0,1,.86,1.82L327,154.1Z"/><path class="cls-13" d="M328.06,152.46l5.47-8.73a1.68,1.68,0,0,1,2.25-.61h0a1.47,1.47,0,0,1,.61,1.88l-4.83,10.38Z"/><path class="cls-13" d="M331.39,156l6.39-8.38a1.86,1.86,0,0,1,2.5-.44h0a1.61,1.61,0,0,1,.4,2.25l-5.36,8Z"/><path class="cls-13" d="M338.8,158.52l4.7-5a1.31,1.31,0,0,0-.29-1.84h0a1.5,1.5,0,0,0-1.89.17l-6,5.61Z"/><path class="cls-24" d="M322.74,155.45s5.49.49,4.63,7.77"/><path class="cls-13" d="M301.49,201.35s-7.43,14.43-15.84,10.67-18.44-25.28-18.44-25.28l9.38-31.52,18.75,35.29Z"/><path class="cls-14" d="M289.53,179.55s-10.82,10.95-18.82,14l-3.5-6.8,20.71-10.37Z"/><path class="cls-25" d="M260.31,135.21s30.58,10,30.88,41.39c0,0-10.22,10.34-23.91,13.14l-6.43-12Z"/><path class="cls-26" d="M254.13,131.51A62.59,62.59,0,0,1,270,143.15L268.09,228H206.61l.2-84.41S214.56,136,223,132.3C230.09,129.16,247.19,128,254.13,131.51Z"/><line class="cls-22" x1="206.71" y1="185.43" x2="205.91" y2="157.68"/><line class="cls-22" x1="269.07" y1="189.23" x2="270.4" y2="165.17"/><path class="cls-19" d="M253.41,100.52,256,87.84a9,9,0,0,0,0-4.13c-.81-2.47-3.79-7.23-8.89-5l-1.1,5s5.29,1.06,7.42,8Z"/><path class="cls-19" d="M247.51,81.27c.09,1.67,1.56,9,6.73,11.61C254.24,92.88,258.77,83.17,247.51,81.27Z"/><path class="cls-13" d="M229.37,129.17h0V107.64h19.85v21.53l5.91,2.7s-1.39,8.92-16,9.12S223,132.3,223,132.3Z"/><path class="cls-19" d="M247.13,78.66s-3.64-9.61-14.87-4.51c-6.8,3.1-8.71,7.24-9.52,10.18a11.91,11.91,0,0,0-.3,3.43l2.72,12.76,10.6-17.66,10.27.82Z"/><path class="cls-14" d="M225.16,98.62a3.32,3.32,0,0,0-4.1-1.08c-2.76,1-1.51,7.75,2.63,8.61a3.26,3.26,0,0,0,2.64-.7S225.32,100.5,225.16,98.62Z"/><path class="cls-22" d="M221.61,99.91s2.31-.77,3.95,2.63"/><path class="cls-14" d="M253.41,98.62a3.3,3.3,0,0,1,4.09-1.08c2.76,1,1.52,7.75-2.62,8.61a3.28,3.28,0,0,1-2.65-.7S253.25,100.5,253.41,98.62Z"/><path class="cls-22" d="M257,99.91s-2.31-.77-4,2.63"/><path class="cls-13" d="M224.88,94.16c0,4,.39,12.49,2.88,17.51A12.37,12.37,0,0,0,239,119.06c5.05.15,8.82-1.79,11.84-7.91s2.87-16.92,2.87-16.92,0-14.43-14.26-14.43C224.43,79.8,224.88,94.16,224.88,94.16Z"/><path class="cls-19" d="M249.07,114.17s-1.66,8.43-9,9.4c-8.45,1.11-10.7-9.19-10.7-9.19s3.73,4.68,9.64,4.68A12.91,12.91,0,0,0,249.07,114.17Z"/><path class="cls-22" d="M239.86,100l.66,3.27a1.14,1.14,0,0,1,0,.41,1.08,1.08,0,0,1-1.14.84l-1.14-.06"/><path class="cls-19" d="M243.53,98.55a1.3,1.3,0,1,0,1.3-1.3A1.3,1.3,0,0,0,243.53,98.55Z"/><path class="cls-19" d="M231.36,98.55a1.3,1.3,0,1,0,1.3-1.3A1.3,1.3,0,0,0,231.36,98.55Z"/><polygon class="cls-19" points="236.17 93.38 228.31 94.86 227.6 93.39 235.85 91.29 236.17 93.38"/><path class="cls-22" d="M244.14,107.88s-1.29,1-4.67,1a12,12,0,0,1-5-1"/><polygon class="cls-19" points="242.39 93.62 250.41 94.54 250.99 93.02 242.58 91.67 242.39 93.62"/><path class="cls-19" d="M254.2,78.13a8.14,8.14,0,0,1,3.44,5.63s-3.42,7.89-3.42,10.55l-2.52-7.63a26.26,26.26,0,0,1-12.6,3.66V80.56l6.58-3.06A8.62,8.62,0,0,1,254.2,78.13Z"/><path class="cls-19" d="M224.12,78.07a8.07,8.07,0,0,0-3.5,5.59s3.33,7.93,3.31,10.59l2.59-7.61s6.37,3.73,13.21,3.8l-.54-9.78-6.55-3.13A8.62,8.62,0,0,0,224.12,78.07Z"/><path class="cls-19" d="M251.06,79.61s-2.32-8.59-14.56-8.3l.63,2.63s-3.26-3-9.86-2.5c0,0,1.19,6.56.12,8.5C227.39,79.94,243.34,89,251.06,79.61Z"/></g><path class="cls-27" d="M340,113.33A11.07,11.07,0,1,1,351,102.26,11.07,11.07,0,0,1,340,113.33Zm0-21.26a10.2,10.2,0,1,0,10.19,10.19A10.21,10.21,0,0,0,340,92.07Z"/><path class="cls-27" d="M339.22,97.31a.88.88,0,1,1,1.76,0,.87.87,0,0,1-.86.89A.88.88,0,0,1,339.22,97.31Zm.22,2.18h1.31v7.89h-1.31Z"/><circle class="cls-28" cx="27.47" cy="160.53" r="9.86"/><circle class="cls-27" cx="124.17" cy="17.92" r="1.14"/><circle class="cls-27" cx="129.67" cy="17.92" r="1.14"/><circle class="cls-27" cx="135.18" cy="17.92" r="1.14"/></g></g></svg>