<svg xmlns="http://www.w3.org/2000/svg" xmlns:xlink="http://www.w3.org/1999/xlink" viewBox="0 0 281.06 281.06"><defs><style>.cls-1,.cls-11,.cls-13{fill:none;}.cls-2{clip-path:url(#clip-path);}.cls-3{fill:#ffb1a5;}.cls-4{fill:#ff5930;}.cls-5{fill:#cc515f;}.cls-6{fill:#f3978e;}.cls-7{fill:#73b3ff;}.cls-8{fill:#0074ff;}.cls-9{fill:#6936d8;}.cls-10{fill:#3a1e76;}.cls-11,.cls-13{stroke:#dae0ef;stroke-miterlimit:10;}.cls-11{stroke-width:1.07px;}.cls-12{fill:#ffd373;}.cls-13{stroke-width:1.24px;}.cls-14,.cls-16{fill:#fff;}.cls-15{fill:#dae0ef;}.cls-16{font-size:16.53px;font-family:MyriadPro-Regular, Myriad Pro;}</style><clipPath id="clip-path"><circle class="cls-1" cx="138.26" cy="142.8" r="82.64"/></clipPath></defs><title>Formulating Proposal</title><g id="Layer_2" data-name="Layer 2"><g id="Illustration"><g class="cls-2"><path class="cls-3" d="M77.14,151.85l4.71-8.18a7.31,7.31,0,0,1,3.7-3.17l12.13-5.64L94.28,146l-9.86,11.28Z"/><rect class="cls-3" x="86.7" y="166.26" width="28.5" height="31.02" rx="11.27" transform="translate(165.96 -15.73) rotate(47.26)"/><path class="cls-3" d="M200.72,151.85,196,143.67a7.27,7.27,0,0,0-3.7-3.17l-12.13-5.64,3.4,11.11,9.86,11.28Z"/><rect class="cls-3" x="162.66" y="166.26" width="28.5" height="31.02" rx="11.27" transform="translate(430.47 175.19) rotate(132.74)"/><path class="cls-3" d="M156.55,97.39c.81-19.86-6.82-21.68-6.82-21.68l4.14-29.58-26.82-.07.59,51.68S155.91,113.37,156.55,97.39Z"/><path class="cls-4" d="M159.77,88.64A53.93,53.93,0,0,0,89,117l49.57,21.25,0-.07,0,.1,50-20A53.76,53.76,0,0,0,159.77,88.64Z"/><path class="cls-5" d="M132.48,97.61l2.58-5.74c1.81.39,7.12-1.36,8.36-7.38a61.77,61.77,0,0,0-21.81,2.63C121.41,89.44,132.48,97.61,132.48,97.61Z"/><path class="cls-3" d="M124.16,101.76,138.06,113l1.24-5.08a6.66,6.66,0,0,0,.19-1.33,7.22,7.22,0,0,0-1.2-4.43l-6.43-7.39,1.66-4c14-3.23,8.87-38.69,8.81-44.62l-20-.06c0,2,.8,25.4.39,29-.77,6.7-1.88,14.87-1.83,19.74A9.4,9.4,0,0,0,124.16,101.76Z"/><path class="cls-6" d="M95.09,181.59c-2.29-2.54,6.79,11.5,11.53,14.26.54-.42.44-.33.92-.75l2.23-2.07A53.67,53.67,0,0,1,95.09,181.59Z"/><path class="cls-6" d="M182.73,181.54c2.29-2.54-6.8,11.52-11.54,14.27a11.67,11.67,0,0,1-.92-.76L168,193A53.79,53.79,0,0,0,182.73,181.54Z"/><path class="cls-7" d="M85.52,124.2a53.95,53.95,0,0,0,49.64,75.19V145.48Z"/><path class="cls-8" d="M94.87,160.42l5.39-9.18c2.42-4-.89-9.67-4.26-12.9L84.22,156.85l-1.73-1.26c1.94,10.63,4.91,18.13,12.61,25.9C100.91,171.26,94.87,160.42,94.87,160.42Z"/><path class="cls-3" d="M64.81,194.7l5.42-8.95-1.42-12.32a19.42,19.42,0,0,1,3.63-14.18l5.16-8.2,4.5,3.28,13.9-16h0a10,10,0,0,1,1.62,12.35l-6.05,9.95s7.53,14.42,2.09,24.69c-2.26,4.28,7,8,7.35,8.18S87.82,210.1,87.82,210.1Z"/><path class="cls-9" d="M192.75,125.48l-50,20h0v53.91a53.94,53.94,0,0,0,50-73.91Z"/><path class="cls-10" d="M183,160.52l-5.39-9.18c-2.42-4,.9-9.67,4.26-12.9L193.61,157l1.73-1.27c-1.94,10.63-4.91,18.13-12.61,25.91C176.92,171.36,183,160.52,183,160.52Z"/><path class="cls-3" d="M213.05,194.7l-5.41-8.95,1.41-12.32a19.38,19.38,0,0,0-3.63-14.18l-5.16-8.2-4.5,3.28-13.9-16h0a10,10,0,0,0-1.62,12.35l6,9.95s-7.53,14.42-2.09,24.69c2.27,4.28-7.73,7.48-8,7.6S190,210.1,190,210.1Z"/></g><circle class="cls-11" cx="138.26" cy="142.8" r="119.02"/><circle class="cls-12" cx="107.14" cy="27.63" r="17.17" transform="translate(66.66 130.6) rotate(-83)"/><circle class="cls-8" cx="252.74" cy="174.63" r="19.88" transform="translate(48.62 404.21) rotate(-83)"/><circle class="cls-4" cx="43.49" cy="210.5" r="12.07" transform="translate(-170.74 228.02) rotate(-83)"/><path class="cls-13" d="M7.33,185.37A137.83,137.83,0,0,1,62.87,27.63"/><path class="cls-14" d="M11.68,183.6a4.67,4.67,0,1,1-5.93-2.91A4.68,4.68,0,0,1,11.68,183.6Z"/><path class="cls-15" d="M12.27,183.4A5.3,5.3,0,1,0,9,190.13a5.29,5.29,0,0,0,3.3-6.73C11.33,180.64,13.22,186.17,12.27,183.4Zm-8.84,3A4,4,0,1,1,8.57,189a4.05,4.05,0,0,1-5.14-2.52C2.7,184.31,4.15,188.54,3.43,186.43Z"/><path class="cls-14" d="M65.23,31.75a4.67,4.67,0,1,0-6.46-1.38A4.68,4.68,0,0,0,65.23,31.75Z"/><path class="cls-15" d="M65.57,32.27a5.3,5.3,0,1,1,1.56-7.33,5.29,5.29,0,0,1-1.56,7.33Zm-5.09-7.84a4,4,0,1,0,5.61,1.19,4.05,4.05,0,0,0-5.61-1.19Z"/><path class="cls-13" d="M250.47,222.53A137.66,137.66,0,0,1,49.3,247.83"/><path class="cls-14" d="M246.44,220a4.67,4.67,0,1,1,1.14,6.51A4.68,4.68,0,0,1,246.44,220Z"/><path class="cls-15" d="M245.93,219.67a5.3,5.3,0,1,0,7.38-1.29,5.31,5.31,0,0,0-7.38,1.29C244.26,222.06,247.61,217.28,245.93,219.67Zm7.65,5.38a4.05,4.05,0,1,1-1-5.65,4.05,4.05,0,0,1,1,5.65Z"/><path class="cls-14" d="M52.58,244.47a4.67,4.67,0,1,0,.45,6.59A4.66,4.66,0,0,0,52.58,244.47Z"/><path class="cls-15" d="M53,244a5.29,5.29,0,1,1-7.47.51A5.3,5.3,0,0,1,53,244Zm-6.14,7a4.05,4.05,0,1,0-.39-5.72,4.05,4.05,0,0,0,.39,5.72Z"/><path class="cls-13" d="M143.29,5.25A137.65,137.65,0,0,1,275.81,137.77"/><path class="cls-14" d="M143.44,10a4.68,4.68,0,1,1,4.79-4.56A4.69,4.69,0,0,1,143.44,10Z"/><path class="cls-15" d="M143.42,10.59a5.3,5.3,0,1,0-5.16-5.43,5.31,5.31,0,0,0,5.16,5.43Zm.24-9.35a4.06,4.06,0,1,1-4.16,4,4.07,4.07,0,0,1,4.16-3.95C145.89,1.3,141.42,1.19,143.66,1.24Z"/><path class="cls-14" d="M271.1,137.63a4.67,4.67,0,1,0,4.55-4.79A4.66,4.66,0,0,0,271.1,137.63Z"/><path class="cls-15" d="M270.47,137.64a5.3,5.3,0,1,1,5.43,5.16,5.32,5.32,0,0,1-5.43-5.16C270.4,134.72,270.55,140.56,270.47,137.64Zm9.35-.23a4.05,4.05,0,1,0-3.95,4.15,4.06,4.06,0,0,0,3.95-4.15C279.76,135.17,279.87,139.64,279.82,137.41Z"/><text class="cls-16" transform="translate(240.44 179.42)">&lt;/&gt;</text><path class="cls-14" d="M107.14,38.37a11.08,11.08,0,1,1,11.07-11.08A11.09,11.09,0,0,1,107.14,38.37Zm0-21.27a10.2,10.2,0,1,0,10.19,10.19A10.2,10.2,0,0,0,107.14,17.1Z"/><path class="cls-14" d="M106.39,22.34a.88.88,0,1,1,.9.9A.88.88,0,0,1,106.39,22.34Zm.22,2.18h1.31v7.89h-1.31Z"/><path class="cls-14" d="M38.16,210.81a1.18,1.18,0,0,1,1.2-1.26,1.26,1.26,0,1,1-1.2,1.26Z"/><path class="cls-14" d="M42.3,210.81a1.18,1.18,0,0,1,1.2-1.26,1.26,1.26,0,1,1-1.2,1.26Z"/><path class="cls-14" d="M46.44,210.81a1.18,1.18,0,0,1,1.2-1.26,1.26,1.26,0,1,1-1.2,1.26Z"/></g></g></svg>