<svg xmlns="http://www.w3.org/2000/svg" xmlns:xlink="http://www.w3.org/1999/xlink" viewBox="0 0 359.77 307.25"><defs><style>.cls-1,.cls-12,.cls-17,.cls-2{fill:none;}.cls-1{stroke:#e9ebff;stroke-width:1.59px;}.cls-1,.cls-2{stroke-miterlimit:10;}.cls-2{stroke:#dae0ef;}.cls-3{fill:#deefff;}.cls-4{fill:#0074ff;}.cls-5{opacity:0.6;fill:url(#linear-gradient);}.cls-20,.cls-6,.cls-8{fill:#fff;}.cls-7{fill:#ff5930;}.cls-8{font-size:18.64px;}.cls-20,.cls-8{font-family:Poppins-Regular, Poppins;}.cls-9{fill:#73b3ff;}.cls-10{fill:url(#linear-gradient-2);}.cls-11{fill:#ffb1a5;}.cls-12,.cls-17{stroke:#282828;stroke-linecap:round;stroke-linejoin:round;}.cls-12{stroke-width:1.06px;}.cls-13{fill:url(#linear-gradient-3);}.cls-14{fill:#e9ebff;}.cls-15{fill:#282828;}.cls-16{fill:#ff957b;}.cls-17{stroke-width:0.74px;}.cls-18{fill:#6936d8;}.cls-19{fill:#ffd373;}.cls-20{font-size:20px;}</style><linearGradient id="linear-gradient" x1="75.98" y1="86.23" x2="154.4" y2="86.23" gradientUnits="userSpaceOnUse"><stop offset="0" stop-color="#141c8c"/><stop offset="0.13" stop-color="#1923af"/><stop offset="0.27" stop-color="#1d28cc"/><stop offset="0.42" stop-color="#202de3"/><stop offset="0.57" stop-color="#2230f3"/><stop offset="0.75" stop-color="#2431fc"/><stop offset="1" stop-color="#2432ff"/></linearGradient><linearGradient id="linear-gradient-2" x1="170.58" y1="204.72" x2="253.82" y2="287.96" gradientUnits="userSpaceOnUse"><stop offset="0" stop-color="#ffb1a5"/><stop offset="0.5" stop-color="#ffb0a3"/><stop offset="0.72" stop-color="#ffab9c"/><stop offset="0.89" stop-color="#ffa38f"/><stop offset="1" stop-color="#ff9a82"/></linearGradient><linearGradient id="linear-gradient-3" x1="269.92" y1="175.46" x2="269.92" y2="80.54" gradientTransform="translate(0.9 -14.28)" gradientUnits="userSpaceOnUse"><stop offset="0" stop-color="#ffd373"/><stop offset="1" stop-color="#ffb000"/></linearGradient></defs><title>Quick Estimation</title><g id="Layer_2" data-name="Layer 2"><g id="Illustration"><line class="cls-1" x1="131.73" y1="114.58" x2="166.46" y2="100.66"/><line class="cls-1" x1="134.82" y1="122.28" x2="211.43" y2="91.57"/><line class="cls-1" x1="217.05" y1="89.32" x2="223.43" y2="86.76"/><line class="cls-1" x1="229.3" y1="84.41" x2="233.9" y2="82.57"/><line class="cls-1" x1="138.1" y1="130.47" x2="179.98" y2="113.68"/><line class="cls-1" x1="184.32" y1="111.94" x2="197.09" y2="106.82"/><line class="cls-1" x1="140.41" y1="136.23" x2="144.1" y2="134.75"/><line class="cls-1" x1="150.88" y1="132.03" x2="158.69" y2="128.9"/><line class="cls-1" x1="163.03" y1="127.16" x2="170.67" y2="124.1"/><line class="cls-1" x1="175.88" y1="122.01" x2="182.29" y2="119.44"/><line class="cls-1" x1="186.63" y1="117.7" x2="199.4" y2="112.58"/><line class="cls-1" x1="142.91" y1="142.45" x2="146.6" y2="140.97"/><line class="cls-1" x1="145.14" y1="148.02" x2="148.83" y2="146.54"/><line class="cls-1" x1="147.37" y1="153.58" x2="151.06" y2="152.1"/><line class="cls-1" x1="221.53" y1="123.85" x2="231.7" y2="119.77"/><line class="cls-1" x1="209.39" y1="135.77" x2="234.14" y2="125.85"/><line class="cls-1" x1="202.43" y1="145.61" x2="236.57" y2="131.92"/><line class="cls-1" x1="153.75" y1="144.56" x2="186.16" y2="131.57"/><line class="cls-1" x1="153.37" y1="138.26" x2="225.13" y2="109.49"/><line class="cls-1" x1="230.65" y1="107.27" x2="240.72" y2="103.24"/><line class="cls-1" x1="156.12" y1="188.85" x2="190.85" y2="174.92"/><line class="cls-1" x1="159.21" y1="196.55" x2="235.81" y2="165.84"/><line class="cls-1" x1="241.43" y1="163.58" x2="247.81" y2="161.03"/><line class="cls-1" x1="253.69" y1="158.67" x2="258.28" y2="156.83"/><line class="cls-1" x1="162.49" y1="204.73" x2="204.37" y2="187.94"/><line class="cls-1" x1="208.71" y1="186.2" x2="221.47" y2="181.08"/><line class="cls-1" x1="164.8" y1="210.49" x2="168.49" y2="209.01"/><line class="cls-1" x1="175.26" y1="206.3" x2="183.08" y2="203.17"/><line class="cls-1" x1="187.42" y1="201.42" x2="195.06" y2="198.36"/><line class="cls-1" x1="200.27" y1="196.27" x2="206.67" y2="193.7"/><line class="cls-1" x1="211.02" y1="191.96" x2="223.78" y2="186.85"/><line class="cls-1" x1="167.29" y1="216.71" x2="170.98" y2="215.23"/><line class="cls-1" x1="169.52" y1="222.28" x2="173.21" y2="220.8"/><line class="cls-1" x1="171.75" y1="227.84" x2="175.44" y2="226.37"/><line class="cls-1" x1="245.92" y1="198.11" x2="256.09" y2="194.04"/><line class="cls-1" x1="233.78" y1="210.03" x2="258.52" y2="200.11"/><line class="cls-1" x1="226.81" y1="219.87" x2="260.96" y2="206.19"/><line class="cls-1" x1="178.14" y1="218.82" x2="210.55" y2="205.83"/><line class="cls-1" x1="177.75" y1="212.52" x2="249.51" y2="183.75"/><line class="cls-1" x1="255.03" y1="181.54" x2="265.11" y2="177.5"/><rect class="cls-2" x="125.16" y="62.53" width="161.22" height="224.86" rx="8.1" transform="translate(-49.95 88.03) rotate(-21.6)"/><rect class="cls-3" x="65.68" y="63.75" width="97.17" height="134.25" rx="10.85"/><path class="cls-4" d="M72,63.75h84.61A6.28,6.28,0,0,1,162.84,70v38.69a0,0,0,0,1,0,0H65.68a0,0,0,0,1,0,0V70A6.28,6.28,0,0,1,72,63.75Z"/><rect class="cls-5" x="75.98" y="73.01" width="78.42" height="26.45" rx="3.13"/><rect class="cls-6" x="75.98" y="117.14" width="20.44" height="15.86" rx="2.54"/><rect class="cls-6" x="104.04" y="117.14" width="20.44" height="15.86" rx="2.54"/><rect class="cls-6" x="133.95" y="117.14" width="20.44" height="15.86" rx="2.54"/><rect class="cls-6" x="75.98" y="141.43" width="20.44" height="15.86" rx="2.54"/><rect class="cls-6" x="104.04" y="141.25" width="20.44" height="15.86" rx="2.54"/><rect class="cls-7" x="133.95" y="141.25" width="20.44" height="38.45" rx="3.95"/><rect class="cls-6" x="75.98" y="163.84" width="20.44" height="15.86" rx="2.54"/><rect class="cls-6" x="104.04" y="163.84" width="20.44" height="15.86" rx="2.54"/><text class="cls-8" transform="translate(99.58 93.48)">----</text><path class="cls-9" d="M288.15,235.32l-43.51,16.73A3.6,3.6,0,0,1,240,250h0a3.61,3.61,0,0,1,2.07-4.65l43.51-16.72a3.59,3.59,0,0,1,4.65,2.06h0A3.6,3.6,0,0,1,288.15,235.32Z"/><path class="cls-9" d="M267.92,256,199.61,282.3c-2.91,1.11-5.67,1-6.18-.36h0c-.5-1.31,1.45-3.28,4.35-4.39l68.32-26.26c2.91-1.12,5.67-1,6.18.35h0C272.78,253,270.83,254.92,267.92,256Z"/><path class="cls-10" d="M186.47,291.1a19.45,19.45,0,0,0,18.74,12.23c16.42-.56,41.95-3,44.66-12.71,11.06-39.68-5.67-85-5.67-85S155.33,218,156.65,218.69C157.64,219.24,177.12,267.72,186.47,291.1Z"/><path class="cls-11" d="M193.69,300c-3.81-2.24-48.25-41.46-64.35-56.73-3.88-3.68-3.46-10.25.88-13.81h0c2.83-2.31,8-4.63,12.85-1.37l41.08,25Z"/><path class="cls-11" d="M164.16,249.18l-24.89-80.89a10.41,10.41,0,0,1,6.65-13h0a9,9,0,0,1,11.23,5.26l23,57.78Z"/><rect class="cls-11" x="176.11" y="184.97" width="21.91" height="39.98" rx="10.96" transform="translate(-49.96 60.66) rotate(-16.28)"/><rect class="cls-11" x="199.07" y="185.44" width="21.91" height="39.98" rx="10.96" transform="translate(-49.17 67.12) rotate(-16.28)"/><rect class="cls-11" x="221.78" y="185.44" width="21.91" height="39.98" rx="10.96" transform="translate(-48.26 73.49) rotate(-16.28)"/><path class="cls-12" d="M145.92,155.28h0a9,9,0,0,1,11.23,5.26l23,57.78"/><path class="cls-12" d="M181.46,185.77A11,11,0,0,1,195,193.22l5.07,17.35"/><line class="cls-12" x1="218.01" y1="193.68" x2="223.07" y2="211.03"/><path class="cls-12" d="M227.14,186.24h0a11,11,0,0,1,13.58,7.44L245.79,211"/><rect class="cls-13" x="262.21" y="66.26" width="17.2" height="94.91" transform="translate(107.19 -130.21) rotate(33.37)"/><polygon class="cls-14" points="237.53 148.62 237.47 164.35 251.9 158.09 237.53 148.62"/><polygon class="cls-15" points="237.48 159.83 237.47 164.35 241.6 162.56 237.48 159.83"/><rect class="cls-16" x="290.22" y="67.74" width="17.2" height="6.92" transform="translate(88.42 -152.62) rotate(33.37)"/><line class="cls-17" x1="286.47" y1="74.3" x2="300.84" y2="83.77"/><line class="cls-17" x1="285.37" y1="75.98" x2="299.74" y2="85.44"/><rect class="cls-18" x="89.7" y="32.45" width="7.01" height="6.79" rx="1.71"/><rect class="cls-19" x="86.2" y="242.85" width="7.01" height="6.79" rx="1.71"/><rect class="cls-9" x="330.69" y="108.55" width="7.01" height="6.79" rx="1.71"/><path class="cls-19" d="M3.86,139.83H34a3.86,3.86,0,0,1,3.86,3.86v28.13A3.86,3.86,0,0,1,34,175.67H5.09A5.09,5.09,0,0,1,0,170.58V143.69A3.86,3.86,0,0,1,3.86,139.83Z"/><text class="cls-20" transform="translate(12.89 165.14)">$</text><path class="cls-9" d="M176.29,0h30.16a3.86,3.86,0,0,1,3.86,3.86V32a3.86,3.86,0,0,1-3.86,3.86H177.52a5.09,5.09,0,0,1-5.09-5.09V3.86A3.86,3.86,0,0,1,176.29,0Z"/><path class="cls-6" d="M186.17,15.07h10.4v1.54h-10.4Zm0,4.3h10.4v1.54h-10.4Z"/><path class="cls-18" d="M325.76,156h30.16a3.86,3.86,0,0,1,3.86,3.86V188a3.86,3.86,0,0,1-3.86,3.86H327a5.09,5.09,0,0,1-5.09-5.09V159.86A3.86,3.86,0,0,1,325.76,156Z"/><text class="cls-20" transform="translate(334.79 181.31)">+</text></g></g></svg>