<svg id="Layer_1" data-name="Layer 1" xmlns="http://www.w3.org/2000/svg" xmlns:xlink="http://www.w3.org/1999/xlink" viewBox="0 0 1200 780"><defs><style>.cls-1{fill:#1d1c44;}.cls-2{fill:#004be0;}.cls-3{fill:url(#linear-gradient);}.cls-4{fill:url(#linear-gradient-2);}</style><linearGradient id="linear-gradient" x1="630.86" y1="383.22" x2="757.25" y2="256.82" gradientUnits="userSpaceOnUse"><stop offset="0" stop-color="#0074ff"/><stop offset="1" stop-color="#0074ff" stop-opacity="0.7"/></linearGradient><linearGradient id="linear-gradient-2" x1="-1287.82" y1="-993.9" x2="-1109.07" y2="-993.9" gradientTransform="translate(2056.11 125.63) rotate(-45)" gradientUnits="userSpaceOnUse"><stop offset="0" stop-color="#0074ff" stop-opacity="0.7"/><stop offset="1" stop-color="#0074ff"/></linearGradient></defs><title>Codedigm_Assets</title><path class="cls-1" d="M132.17,624.9a60.46,60.46,0,0,0-26.62-5.74,57.19,57.19,0,0,0-27.83,7.09A52.55,52.55,0,0,0,57.36,646,53.53,53.53,0,0,0,50,673.37c0,15.81,5.34,29.12,15.86,39.54s24.1,15.7,40.4,15.7c16.79,0,30.71-5.53,41.37-16.44a11.15,11.15,0,0,0-15.74-15.79c-7.09,7-15,10.39-24.1,10.39-10.57,0-18.87-3-25.36-9.32s-9.57-13.78-9.57-23.12a31.15,31.15,0,0,1,9.84-23.44,32.35,32.35,0,0,1,23.56-9.63,34.37,34.37,0,0,1,25.57,10.84A11.16,11.16,0,0,0,148,636.71,52.19,52.19,0,0,0,132.17,624.9Z"/><path class="cls-1" d="M448.45,635.33a47.65,47.65,0,0,0-18-10.59c-6.77-2.21-16.95-3.28-31.14-3.28H373.67V726.31H409.5c13.7,0,24-2.21,31.49-6.76a45.59,45.59,0,0,0,17.2-18.78,55.1,55.1,0,0,0,5.9-25,62.67,62.67,0,0,0-4-23A47.82,47.82,0,0,0,448.45,635.33Zm-16,62.47A23.4,23.4,0,0,1,422.05,703c-4.51,1-12,1.52-22.39,1.52h-4V643.56c10,0,17.78.5,23,1.49a28.93,28.93,0,0,1,12.3,5.32,25.57,25.57,0,0,1,7.9,10.18,37.71,37.71,0,0,1,.46,27.8A24.84,24.84,0,0,1,432.48,697.8Z"/><path class="cls-1" d="M581.85,643.68a11.06,11.06,0,0,0,11-11v-.13a11.07,11.07,0,0,0-11-11h-61V726.31h60.66a11.06,11.06,0,0,0,11-11v-.13a11,11,0,0,0-11-11H543.16V681.23h37.73a11,11,0,1,0,0-22.1H543.16V643.68Z"/><path class="cls-1" d="M649.62,621.28H672q22.71,0,33.06,3.37a46.46,46.46,0,0,1,29.47,27.82,64,64,0,0,1,4,23.57,55.49,55.49,0,0,1-6,25.23,44.74,44.74,0,0,1-17,18.54q-11,6.69-32.13,6.69H649.62Zm11.93,93.43h10.92q18.25,0,26.59-1.87a32.8,32.8,0,0,0,14.52-7.19,34.6,34.6,0,0,0,9.42-13,48.78,48.78,0,0,0-.58-36.36,35.41,35.41,0,0,0-10.85-13.95A38.67,38.67,0,0,0,695,635.15q-9.49-1.8-27.17-1.8h-6.32Z"/><path class="cls-1" d="M801.49,726.5h0a6.19,6.19,0,0,1-6.18-6.19V627.46a6.18,6.18,0,0,1,6.18-6.18h0a6.17,6.17,0,0,1,6.18,6.18v92.85A6.18,6.18,0,0,1,801.49,726.5Z"/><path class="cls-1" d="M976.51,675q-.42,25.59-14.87,39.82t-38,14.23q-27,0-43.13-16.6t-16.1-38.88q0-22.27,16.1-38.6T922,618.69a64.24,64.24,0,0,1,25.66,5.1A77.44,77.44,0,0,1,965.8,635a6,6,0,0,1,.36,8.95l-.74.71a6,6,0,0,1-7.91.29,63.81,63.81,0,0,0-15.06-9.49,51.4,51.4,0,0,0-21-4.52A44.56,44.56,0,0,0,900,636.66a43.34,43.34,0,0,0-16.67,15.52,39.45,39.45,0,0,0-6,21.13q0,17.69,13.3,30.83T923.9,717.3q14.8,0,25.59-8.13T962.71,687h-26.8a6,6,0,0,1-6-6h0a6,6,0,0,1,6-6Z"/><path class="cls-1" d="M1144,726.5h0a6,6,0,0,1-6-5.22l-9.07-66.37-34.53,69.91a3,3,0,0,1-2.7,1.68h0a3,3,0,0,1-2.69-1.68l-35-70.48L1045,721.4a5.9,5.9,0,0,1-5.84,5.1h0a5.9,5.9,0,0,1-5.83-6.72l14-98.5h3l41.4,83.51,41.11-83.51h3l14.11,98.33A6,6,0,0,1,1144,726.5Z"/><path class="cls-1" d="M289.53,626.3a56.16,56.16,0,0,0-27.82-7.14,53.87,53.87,0,0,0-46.87,27.2,54.87,54.87,0,0,0-7.22,27.47,54,54,0,0,0,7.24,27.36A52.22,52.22,0,0,0,234.92,721a55.37,55.37,0,0,0,27.49,7.15,54.56,54.56,0,0,0,27.42-7.23A53.14,53.14,0,0,0,309.72,701a55.33,55.33,0,0,0-.07-54.85A52.88,52.88,0,0,0,289.53,626.3Zm4.79,47.59c0,9.36-3,16.89-9.3,23.05a31.19,31.19,0,0,1-22.93,9.18,30.37,30.37,0,0,1-22.44-9.4,31,31,0,0,1-9.4-23,31.8,31.8,0,0,1,9.15-23.15c6.11-6.32,13.53-9.39,22.69-9.39a30.91,30.91,0,0,1,22.78,9.41C291.23,656.9,294.32,664.53,294.32,673.89Z"/><path class="cls-2" d="M757.38,299.46a30.06,30.06,0,0,0,0-42.51l-206-206h0a60.3,60.3,0,0,0,0,85.28l142,142L736,320.85Z"/><path class="cls-2" d="M442.62,290.88a30.06,30.06,0,0,0,0,42.51l206,206h0a60.31,60.31,0,0,0,0-85.29l-142-142L464,269.5Z"/><path class="cls-3" d="M693.23,278.08l-42.52,42.77a58.13,58.13,0,0,0,0,82.22l1.53,1.53L757.38,299.46a30.06,30.06,0,0,0,0-42.51l-21.51-21.51Z"/><path class="cls-4" d="M506.64,312.14l42.65-42.65a58.13,58.13,0,0,0,0-82.22l-1.53-1.53L442.62,290.88a30.06,30.06,0,0,0,0,42.51L464,354.78Z"/></svg>