<svg id="Layer_1" data-name="Layer 1" xmlns="http://www.w3.org/2000/svg" xmlns:xlink="http://www.w3.org/1999/xlink" viewBox="0 0 2000 1300"><defs><style>.cls-1{fill:#1d1c44;}.cls-2{fill:#004be0;}.cls-3{fill:url(#linear-gradient);}.cls-4{fill:url(#linear-gradient-2);}</style><linearGradient id="linear-gradient" x1="1053.3" y1="638.29" x2="1271.62" y2="419.97" gradientUnits="userSpaceOnUse"><stop offset="0" stop-color="#0074ff"/><stop offset="1" stop-color="#0074ff" stop-opacity="0.7"/></linearGradient><linearGradient id="linear-gradient-2" x1="-280.83" y1="-239.62" x2="27.92" y2="-239.62" gradientTransform="translate(1096.29 523.2) rotate(-45)" gradientUnits="userSpaceOnUse"><stop offset="0" stop-color="#0074ff" stop-opacity="0.7"/><stop offset="1" stop-color="#0074ff"/></linearGradient></defs><title>Codedigm_Assets</title><path class="cls-1" d="M191.93,1055.74c-13.57-6.58-29-9.92-46-9.92a98.65,98.65,0,0,0-48.08,12.25,90.67,90.67,0,0,0-35.17,34.08A92.41,92.41,0,0,0,50,1139.46c0,27.31,9.22,50.29,27.39,68.3s41.63,27.11,69.78,27.11c29,0,53.05-9.55,71.46-28.4a19.25,19.25,0,0,0-27.18-27.27c-12.26,12.07-25.88,17.94-41.63,17.94-18.26,0-32.59-5.26-43.8-16.1s-16.53-23.8-16.53-39.92,5.56-29.38,17-40.5S131.3,1084,147.17,1084c17.28,0,31.73,6.13,44.17,18.73a19.27,19.27,0,0,0,27.9-26.58A90,90,0,0,0,191.93,1055.74Z"/><path class="cls-1" d="M738.24,1073.75a82.29,82.29,0,0,0-31.16-18.29c-11.68-3.81-29.28-5.67-53.78-5.67H609.07V1230.9H671c23.67,0,41.47-3.82,54.4-11.69a78.53,78.53,0,0,0,29.7-32.43,95.11,95.11,0,0,0,10.2-43.12c0-14.85-2.3-28.23-6.86-39.78A82.71,82.71,0,0,0,738.24,1073.75Zm-27.59,107.9a40.34,40.34,0,0,1-18,8.89c-7.78,1.75-20.78,2.63-38.66,2.63H647V1088c17.33,0,30.71.87,39.75,2.58a49.94,49.94,0,0,1,21.23,9.18,44.18,44.18,0,0,1,13.65,17.6,60.12,60.12,0,0,1,5,24.57c0,8.93-1.42,16.82-4.2,23.44A43,43,0,0,1,710.65,1181.65Z"/><path class="cls-1" d="M968.65,1088.18a19.1,19.1,0,0,0,19.08-19.08v-.22a19.11,19.11,0,0,0-19.08-19.09H863.22V1230.9H968a19.1,19.1,0,0,0,19.08-19.08v-.22A19.1,19.1,0,0,0,968,1192.51H901.83V1153H967a19.08,19.08,0,0,0,0-38.16H901.83v-26.69Z"/><path class="cls-1" d="M1085.7,1049.48h38.73q39.24,0,57.11,5.83a80.19,80.19,0,0,1,50.9,48q6.94,17.64,7,40.72a95.79,95.79,0,0,1-10.3,43.58,77.25,77.25,0,0,1-29.3,32q-19,11.55-55.49,11.55h-58.6Zm20.61,161.38h18.87q31.53,0,45.93-3.23a56.9,56.9,0,0,0,25.08-12.41,59.81,59.81,0,0,0,16.26-22.47q5.58-13.27,5.59-30.66a78.26,78.26,0,0,0-6.58-32.16,61.06,61.06,0,0,0-18.75-24.08,66.72,66.72,0,0,0-28.55-12.42q-16.4-3.09-46.93-3.1h-10.92Z"/><path class="cls-1" d="M1348,1231.22h0a10.68,10.68,0,0,1-10.67-10.68V1060.15a10.67,10.67,0,0,1,10.67-10.67h0a10.68,10.68,0,0,1,10.68,10.67v160.39A10.68,10.68,0,0,1,1348,1231.22Z"/><path class="cls-1" d="M1650.34,1142.33q-.75,44.2-25.7,68.78T1559,1235.69q-46.68,0-74.48-28.68t-27.81-67.16q0-38.47,27.81-66.66t71.75-28.18a111,111,0,0,1,44.32,8.81,134.23,134.23,0,0,1,31.28,19.3,10.3,10.3,0,0,1,.62,15.46l-1.28,1.23a10.27,10.27,0,0,1-13.66.51,109.57,109.57,0,0,0-26-16.39,88.62,88.62,0,0,0-36.25-7.82q-18.63,0-37,9.93a75,75,0,0,0-28.8,26.82,68.18,68.18,0,0,0-10.42,36.49q0,30.54,23,53.26t57.48,22.72q25.58,0,44.19-14t22.85-38.36H1580.2a10.3,10.3,0,0,1-10.3-10.3h0a10.31,10.31,0,0,1,10.3-10.31Z"/><path class="cls-1" d="M1939.58,1231.22h0a10.43,10.43,0,0,1-10.32-9l-15.65-114.64L1854,1228.32a5.18,5.18,0,0,1-4.66,2.9h0a5.19,5.19,0,0,1-4.65-2.89l-60.39-121.75-15.69,115.83a10.19,10.19,0,0,1-10.09,8.81h0a10.18,10.18,0,0,1-10.07-11.6l24.18-170.14h5.21l71.51,144.25,71-144.25h5.22l24.36,169.85A10.42,10.42,0,0,1,1939.58,1231.22Z"/><path class="cls-1" d="M463.73,1058.16a97.07,97.07,0,0,0-48-12.34,93,93,0,0,0-81,47,94.58,94.58,0,0,0-12.48,47.44,93.47,93.47,0,0,0,12.5,47.27,90.46,90.46,0,0,0,34.65,34.16A95.87,95.87,0,0,0,416.89,1234a94.08,94.08,0,0,0,47.36-12.49,91.55,91.55,0,0,0,34.36-34.36,95.66,95.66,0,0,0-.13-94.75A91.25,91.25,0,0,0,463.73,1058.16Zm8.28,82.2c0,16.16-5.26,29.18-16.07,39.8S432.13,1196,416.35,1196c-15.16,0-27.84-5.31-38.77-16.24s-16.24-23.94-16.24-39.76,5.17-29,15.81-40,23.37-16.23,39.2-16.23c15.46,0,28.32,5.32,39.33,16.26S472,1124.18,472,1140.36Z"/><path class="cls-2" d="M1271.83,493.62a51.92,51.92,0,0,0,0-73.43L916,64.31h0a104.16,104.16,0,0,0,0,147.31L1161.25,456.9l73.65,73.65Z"/><path class="cls-2" d="M728.17,478.79a51.93,51.93,0,0,0,0,73.44L1084,908.1h0a104.16,104.16,0,0,0,0-147.31L838.75,515.51,765.1,441.86Z"/><path class="cls-3" d="M1161,456.68l-73.44,73.88a100.42,100.42,0,0,0,0,142l2.64,2.65,181.6-181.61a51.92,51.92,0,0,0,0-73.43L1234.68,383Z"/><path class="cls-4" d="M838.75,515.51l73.66-73.66a100.42,100.42,0,0,0,0-142l-2.64-2.64-181.6,181.6a51.93,51.93,0,0,0,0,73.44l36.93,36.93Z"/></svg>