<?xml version="1.0" standalone="no"?>
<!DOCTYPE svg PUBLIC "-//W3C//DTD SVG 20010904//EN"
 "http://www.w3.org/TR/2001/REC-SVG-20010904/DTD/svg10.dtd">
<svg version="1.0" xmlns="http://www.w3.org/2000/svg"
 width="667.000000pt" height="667.000000pt" viewBox="0 0 667.000000 667.000000"
 preserveAspectRatio="xMidYMid meet">
<metadata>
Created by potrace 1.11, written by Peter Selinger 2001-2013
</metadata>
<g transform="translate(0.000000,667.000000) scale(0.100000,-0.100000)"
fill="#000000" stroke="none">
<path d="M3128 6665 c-2 -1 -42 -6 -89 -9 -47 -4 -94 -8 -105 -10 -10 -2 -44
-7 -74 -11 -82 -10 -295 -53 -380 -76 -93 -26 -228 -67 -255 -79 -11 -5 -45
-17 -75 -28 -175 -63 -487 -222 -640 -326 -211 -143 -358 -264 -516 -421 -148
-148 -184 -188 -272 -300 -34 -44 -65 -84 -70 -90 -4 -5 -37 -53 -73 -105
-171 -249 -308 -525 -405 -815 -52 -158 -77 -252 -109 -410 -21 -108 -24 -126
-31 -183 -3 -29 -7 -63 -10 -75 -25 -128 -24 -647 1 -786 1 -9 6 -42 10 -75
26 -214 116 -559 199 -761 131 -317 301 -608 503 -860 87 -109 318 -348 423
-439 311 -268 707 -495 1100 -628 130 -44 388 -110 500 -128 41 -7 83 -14 94
-16 10 -2 41 -6 70 -9 28 -3 71 -8 96 -11 78 -10 491 -12 588 -3 90 8 178 18
211 24 9 1 36 6 61 10 537 88 1031 301 1480 639 30 22 66 51 80 62 14 12 48
41 75 64 508 431 904 1076 1061 1730 16 70 54 265 58 305 4 28 8 61 11 75 27
139 27 654 0 835 -3 17 -7 48 -10 70 -56 401 -214 846 -424 1198 -74 125 -83
139 -145 228 -244 347 -622 705 -966 914 -125 77 -137 83 -282 156 -173 87
-516 219 -569 219 -9 0 -19 3 -23 7 -3 4 -12 8 -19 9 -7 1 -39 9 -72 17 -51
13 -215 46 -308 61 -15 3 -58 8 -95 12 -37 3 -78 8 -92 11 -29 4 -507 12 -512
8z"/>
</g>
</svg>
