<svg xmlns="http://www.w3.org/2000/svg" xmlns:xlink="http://www.w3.org/1999/xlink" viewBox="0 0 407.52 271.52"><defs><style>.cls-1{fill:#e9ebff;}.cls-13,.cls-14,.cls-15,.cls-2,.cls-21,.cls-23,.cls-24,.cls-3,.cls-4,.cls-5{fill:none;}.cls-2,.cls-24,.cls-3{stroke:#fff;}.cls-13,.cls-14,.cls-15,.cls-2,.cls-23,.cls-24,.cls-3,.cls-4,.cls-5{stroke-miterlimit:10;}.cls-2{stroke-width:2.13px;}.cls-3{stroke-width:1.66px;}.cls-4{stroke:#73b3ff;stroke-width:1.42px;stroke-dasharray:5.68;}.cls-21,.cls-23,.cls-4{stroke-linecap:round;}.cls-5{stroke:#dae0ef;}.cls-6{fill:#ff5930;}.cls-7{fill:#ffd373;}.cls-8{fill:url(#linear-gradient);}.cls-9{fill:#73b3ff;}.cls-10{fill:#6936d8;}.cls-11,.cls-12{fill:#fff;}.cls-12{font-size:18.98px;font-family:MyriadPro-Regular, Myriad Pro;}.cls-13,.cls-14,.cls-15{stroke:#e9ebff;}.cls-13{stroke-width:1.15px;}.cls-14{stroke-width:1.24px;}.cls-15{stroke-width:1.09px;}.cls-16{fill:#1f120a;}.cls-17{fill:#171619;}.cls-18{fill:#2d2e2e;}.cls-19{fill:#e68078;}.cls-20{fill:#3a1e76;}.cls-21{stroke:#081921;stroke-linejoin:round;stroke-width:0.53px;}.cls-22{fill:url(#linear-gradient-2);}.cls-23{stroke:#211b1e;stroke-width:0.69px;}.cls-24{stroke-width:1.07px;}.cls-25{fill:#2432ff;}</style><linearGradient id="linear-gradient" x1="78.45" y1="33.01" x2="84.72" y2="33.01" gradientUnits="userSpaceOnUse"><stop offset="0" stop-color="#2432ff"/><stop offset="1" stop-color="#1946ff"/></linearGradient><linearGradient id="linear-gradient-2" x1="73.77" y1="225.92" x2="154.88" y2="225.92" gradientTransform="translate(-142.13 127.54) rotate(-45.03)" gradientUnits="userSpaceOnUse"><stop offset="0" stop-color="#ffb000"/><stop offset="0.07" stop-color="#ffb612"/><stop offset="0.22" stop-color="#ffc035"/><stop offset="0.37" stop-color="#ffc850"/><stop offset="0.52" stop-color="#ffce64"/><stop offset="0.68" stop-color="#ffd26f"/><stop offset="0.84" stop-color="#ffd373"/></linearGradient></defs><title>Dig Deeper</title><g id="Layer_2" data-name="Layer 2"><g id="Illustration"><rect class="cls-1" x="72.29" y="148.72" width="127.06" height="61.41" rx="3.6"/><rect class="cls-2" x="79.47" y="155.5" width="112.49" height="47.47"/><circle class="cls-3" cx="97.43" cy="168.05" r="5.54"/><polyline class="cls-3" points="79.52 199.75 98.04 182.31 106.06 191.69"/><polyline class="cls-3" points="93.33 203.06 121.55 176.2 146.8 202.94"/><line class="cls-4" x1="85.32" y1="245.54" x2="109.54" y2="245.54"/><line class="cls-5" x1="37.82" y1="44" x2="221.2" y2="44"/><line class="cls-5" x1="342.17" y1="44" x2="380.09" y2="44"/><rect class="cls-5" x="37.82" y="21.56" width="342.26" height="211.76" rx="4.47"/><path class="cls-6" d="M60.38,33a3.13,3.13,0,1,1-3.13-3.13A3.13,3.13,0,0,1,60.38,33Z"/><path class="cls-7" d="M72.55,33a3.13,3.13,0,1,1-3.13-3.13A3.13,3.13,0,0,1,72.55,33Z"/><path class="cls-8" d="M84.72,33a3.14,3.14,0,1,1-3.14-3.13A3.14,3.14,0,0,1,84.72,33Z"/><path class="cls-9" d="M373.41,5.2H339.68a2.59,2.59,0,0,1-2.6-2.6h0a2.59,2.59,0,0,1,2.6-2.6h33.73A2.6,2.6,0,0,1,376,2.6h0A2.6,2.6,0,0,1,373.41,5.2Z"/><rect class="cls-10" y="145.65" width="8.04" height="7.79" rx="1.96"/><rect class="cls-10" x="399.48" y="29.11" width="8.04" height="7.79" rx="1.96"/><path class="cls-9" d="M15.58,80.62H50.19A4.43,4.43,0,0,1,54.62,85v32.28a4.43,4.43,0,0,1-4.43,4.43H17a5.84,5.84,0,0,1-5.84-5.84V85A4.43,4.43,0,0,1,15.58,80.62Z"/><circle class="cls-11" cx="26.63" cy="101.19" r="1.31"/><circle class="cls-11" cx="32.95" cy="101.19" r="1.31"/><circle class="cls-11" cx="39.27" cy="101.19" r="1.31"/><rect class="cls-7" x="350.14" y="263.73" width="8.04" height="7.79" rx="1.96"/><rect class="cls-10" x="286" y="208.01" width="50.06" height="42.52" rx="4.13" transform="translate(622.06 458.54) rotate(180)"/><text class="cls-12" transform="translate(299.75 234.84)">{...}</text><line class="cls-13" x1="78.04" y1="133.79" x2="174.56" y2="133.79"/><line class="cls-13" x1="72.4" y1="128.58" x2="96.62" y2="128.58"/><line class="cls-14" x1="221.2" y1="189.51" x2="342.17" y2="189.51"/><line class="cls-15" x1="221.2" y1="181.46" x2="242.9" y2="181.46"/><line class="cls-14" x1="221.2" y1="194.73" x2="342.17" y2="194.73"/><line class="cls-13" x1="72.4" y1="141.25" x2="153.37" y2="141.25"/><path class="cls-1" d="M73.61,101.2l6.75-3.14a.84.84,0,0,1,1.2.76h0a.83.83,0,0,1-.51.77l-5.87,2.57v0l5.87,2.57a.85.85,0,0,1,.51.77h0a.84.84,0,0,1-1.2.76l-6.75-3.14a.82.82,0,0,1-.49-.76V102A.84.84,0,0,1,73.61,101.2Z"/><path class="cls-1" d="M83.18,106.47l3.26-11a.85.85,0,0,1,.81-.61h0a.85.85,0,0,1,.82,1.09l-3.26,11a.86.86,0,0,1-.82.61h0A.85.85,0,0,1,83.18,106.47Z"/><path class="cls-1" d="M97.36,103.21l-6.76,3.1a.84.84,0,0,1-1.19-.76h0a.83.83,0,0,1,.51-.77l6-2.58v0l-6-2.57a.84.84,0,0,1-.51-.77h0a.84.84,0,0,1,1.19-.76l6.76,3.1a.85.85,0,0,1,.49.76v.54A.84.84,0,0,1,97.36,103.21Z"/><line class="cls-13" x1="72.4" y1="120.43" x2="174.56" y2="120.43"/><path class="cls-16" d="M152,160.9c-12,11.14-9.75,17.77-9.75,17.77s.9,12,6.89,13.37c.68.16.5,2-.11,3-.48.77-2.42,1.68-2.39,1.83s8.45-2.68,10.09-3.1c6-1.56,9.86-11.43,11.31-18.72,4.41-22.19-15-33.94-8.27-51,1.69-4.3,8.2-9.27,5.83-11.24-3.24-2.69-8.58-1.36-9.91-1-6,1.73-9.16,6.71-10.18,8.53a19.13,19.13,0,0,0-2,13.23,22.34,22.34,0,0,0,3.82,7.76c1.84,2.68,2.76,3.75,4.28,5.67a12.3,12.3,0,0,1,2.55,7.89c-.11,2.57-1,3.87-2.13,6"/><path class="cls-17" d="M170,178.07l6.49-.1,4.94,18.63,8,37.1H171.9c-.21-8.85-3.14-18.73-4.24-29.51,0,0-3.37-20,5.87-26.12"/><path class="cls-18" d="M156.4,233.7c-.21-8.85-3.14-18.73-4.24-29.51,0,0-3.37-20,5.87-26.12l18.47-.1,3.33,12.56-3,6.38.65,36.79Z"/><path class="cls-19" d="M170.58,161.06l13.56,6.45a6.27,6.27,0,0,0,6.91-2h0c2.3-2.92,3.51-5.28.36-7.26l-14.84-9Z"/><path class="cls-20" d="M159.92,156.74a47.67,47.67,0,0,0,13.42,9.52l7.53-15.18-8.34-5.86Z"/><path class="cls-19" d="M183.23,158.51,206.65,138l5,3.27-21.38,25.05A6.27,6.27,0,0,1,180,162.6h0C179.63,160.38,181.5,159.94,183.23,158.51Z"/><path class="cls-19" d="M203.94,141.37l-.22-5.45a3.56,3.56,0,0,1,.62-2.71l3-3.09a1.52,1.52,0,0,1,2.39.1,1.32,1.32,0,0,1,.12,1.31L208.58,134l.43,2.34,7.34,3.13s-1.55,2.36-7.22,4.77l-3.14-.61-2.05-2.22Z"/><path class="cls-10" d="M172.48,145.19s7.05,7,7.35,16.44c.25,7.64-3.33,16.34-3.33,16.34l-18.47.1s-3.12-6.27-6.47-12.41S151,152,156.25,147.17Z"/><polygon class="cls-19" points="166.95 137.97 165.98 149.56 156.72 147.41 158.11 130.9 166.95 137.97"/><path class="cls-16" d="M166.36,145c0-.2-4-6.5-4-6.5l4.52.86Z"/><path class="cls-19" d="M165.81,115.35s5.29-.4,7.14,5.92c0,0,1.29,4.59,3.09,11.22a5.69,5.69,0,0,1-5.17,7.24,17.13,17.13,0,0,1-7.27-1.34l-3.62-2c-8.74-6-5.48-19.8,5.06-20.94Z"/><path class="cls-19" d="M173.55,127.36l3,2c.56.27.64,1.17.22,1.32l-2.25.82Z"/><path class="cls-16" d="M161.87,128.47s-5.56-14.65,9.39-11.63c0,0-8.56-7.34-19.08.69a11,11,0,0,0-3.83,8.1c.19,6.78,5.56,6.72,9.08,13.35,0,0,3.24-1.41,3.21-6.32A18.61,18.61,0,0,1,161.87,128.47Z"/><path class="cls-16" d="M156.44,125l4.12,4.61c17.68-9,6.17-14.57,6.17-14.57S151.84,114.32,156.44,125Z"/><polygon class="cls-16" points="165.81 125.91 162.44 130.86 160.23 126.64 165.81 125.91"/><path class="cls-16" d="M164.47,116.48s6.12-.47,8,3.4c0,0,5-8.49-7.31-5.38C159.32,116,164.47,116.48,164.47,116.48Z"/><path class="cls-19" d="M156.35,130.34a3.5,3.5,0,1,0,2.9-4A3.5,3.5,0,0,0,156.35,130.34Z"/><path class="cls-21" d="M161.44,130.23s-.4-2.51-2.73-1.73"/><path class="cls-16" d="M171,123.54s1.76-.67,2.06.12c0,0,.2.54-1.35,1.09s-2,.54-2.33.08S170.19,123.78,171,123.54Z"/><path class="cls-16" d="M171.73,128.17a.79.79,0,1,0,.77-.83A.8.8,0,0,0,171.73,128.17Z"/><path class="cls-11" d="M175.91,132l-2.71.7s.63,1.2,3,.73A8,8,0,0,0,175.91,132Z"/><path class="cls-19" d="M161.16,145.76,156,147.15s5.5,6.73,11.39,4.83c6.39-2.06-2.6-6.15-2.6-6.15Z"/><path class="cls-7" d="M255.42,167.6a77.16,77.16,0,1,1,66.16-6.44h0a76.63,76.63,0,0,1-58.39,8.8A75.77,75.77,0,0,1,255.42,167.6ZM304.34,32.75A66.31,66.31,0,1,0,316,151.9h0A66.29,66.29,0,0,0,304.34,32.75Z"/><rect class="cls-22" x="83.54" y="155.15" width="29.93" height="102.32" rx="14.96" transform="translate(224.38 15.46) rotate(58.93)"/><rect class="cls-7" x="165.04" y="102.76" width="13.25" height="118.93" rx="6.62" transform="translate(222.02 -68.54) rotate(58.93)"/><path class="cls-19" d="M170.44,171.84l24.39-26.4,4.66,4.1s-14.13,23.35-21.22,30.16a6.62,6.62,0,0,1-11-3.39h0C166.73,174,168.68,173.44,170.44,171.84Z"/><path class="cls-19" d="M196.71,139.84a2.14,2.14,0,0,1,1.67-1.3,1.27,1.27,0,0,1,1.46,1.57l-.14.79c1,0,2.81-.59,4.83-5.14a1.78,1.78,0,0,1,1.92-1.06,1.1,1.1,0,0,1,.81,1.22.31.31,0,0,1,0,.08,1.57,1.57,0,0,1,1.37-.36,1.08,1.08,0,0,1,.81,1.21,1.85,1.85,0,0,1,0,.23,1.51,1.51,0,0,1,.7,0,1.08,1.08,0,0,1,.81,1.22,1.49,1.49,0,0,1-.13.49,1.42,1.42,0,0,0-.08.18h.07a1.08,1.08,0,0,1,.81,1.21,1.61,1.61,0,0,1-.13.5,20.59,20.59,0,0,1-1.82,3.29h0l0,0a13.51,13.51,0,0,1-.94,1.22c-1.48,1.82-5.88,2.43-9.15,4.31l-4.66-4.1Z"/><path class="cls-19" d="M157.66,170.7,168,179.91a6.63,6.63,0,0,0,7.57.88h0c3.45-1.88,5.6-3.67,3.36-6.91l-11.2-12.68Z"/><path class="cls-10" d="M150.59,157.82S150,166,161,175.29l11.78-10.77L165,153.31Z"/><line class="cls-23" x1="172.73" y1="164.52" x2="166.98" y2="155.45"/><path class="cls-1" d="M127.49,84.9l-53.88-.2c-.68,0-1.23-.73-1.23-1.63l.12-18.22a1.46,1.46,0,0,1,1.24-1.61l53.87.2a1.47,1.47,0,0,1,1.23,1.62l-.12,18.22A1.46,1.46,0,0,1,127.49,84.9Z"/><path class="cls-6" d="M83.21,79.62h0a5.86,5.86,0,0,1-5.86-5.85h0a5.86,5.86,0,0,1,5.86-5.86h0a5.86,5.86,0,0,1,5.86,5.86h0A5.86,5.86,0,0,1,83.21,79.62Z"/><line class="cls-24" x1="94.1" y1="71.69" x2="123.48" y2="71.69"/><line class="cls-24" x1="94.1" y1="75.84" x2="100.17" y2="75.84"/><path class="cls-1" d="M187.68,84.9l-53.87-.2c-.68,0-1.23-.73-1.23-1.63l.12-18.22a1.46,1.46,0,0,1,1.24-1.61l53.87.2A1.47,1.47,0,0,1,189,65.06l-.12,18.22A1.47,1.47,0,0,1,187.68,84.9Z"/><path class="cls-6" d="M143.41,79.62h0a5.85,5.85,0,0,1-5.86-5.85h0a5.86,5.86,0,0,1,5.86-5.86h0a5.85,5.85,0,0,1,5.85,5.86h0A5.85,5.85,0,0,1,143.41,79.62Z"/><line class="cls-24" x1="154.3" y1="71.69" x2="183.68" y2="71.69"/><line class="cls-24" x1="154.3" y1="75.84" x2="160.36" y2="75.84"/><path class="cls-25" d="M238.05,94.52l29-14.94v4.31L242.62,96.15v.12l24.45,12.26v4.32l-29-14.95Z"/><path class="cls-25" d="M271.13,115.35,288.58,70h4.25l-17.51,45.34Z"/><path class="cls-25" d="M325.79,98l-29,14.89v-4.32l24.64-12.26v-.12L296.77,83.89V79.58l29,14.88Z"/></g></g></svg>