<svg xmlns="http://www.w3.org/2000/svg" xmlns:xlink="http://www.w3.org/1999/xlink" viewBox="0 0 364.31 357.19"><defs><style>.cls-1,.cls-11,.cls-15,.cls-16,.cls-18,.cls-19,.cls-2,.cls-8,.cls-9{fill:none;}.cls-2{stroke:#dae0ef;}.cls-15,.cls-16,.cls-18,.cls-19,.cls-2{stroke-miterlimit:10;}.cls-3{clip-path:url(#clip-path);}.cls-4{fill:#ffb1a5;}.cls-5{fill:#f3978e;}.cls-6{fill:#ff5930;}.cls-7{fill:#282828;}.cls-11,.cls-8,.cls-9{stroke:#282828;stroke-linejoin:round;}.cls-11,.cls-16,.cls-8,.cls-9{stroke-linecap:round;}.cls-8{stroke-width:0.74px;}.cls-9{stroke-width:0.91px;}.cls-10,.cls-22,.cls-34{fill:#fff;}.cls-11{stroke-width:0.81px;}.cls-12{fill:url(#linear-gradient);}.cls-13{fill:url(#linear-gradient-2);}.cls-14{fill:url(#linear-gradient-3);}.cls-15,.cls-18,.cls-19{stroke:#fff;}.cls-15{stroke-width:1.13px;}.cls-16{stroke:#73b3ff;stroke-width:1.24px;stroke-dasharray:4.95;}.cls-17{fill:#e9ebff;}.cls-19{stroke-width:0.92px;}.cls-20{fill:#6936d8;}.cls-21{fill:#73b3ff;}.cls-22{font-size:12.36px;font-family:Helvetica;}.cls-23{fill:#40327a;}.cls-24{fill:#2432ff;}.cls-25{fill:url(#linear-gradient-4);}.cls-26{fill:#141c8c;}.cls-27{fill:#ffd373;}.cls-28{fill:url(#linear-gradient-5);}.cls-29{fill:url(#linear-gradient-6);}.cls-30{fill:url(#linear-gradient-7);}.cls-31{fill:url(#linear-gradient-8);}.cls-32{fill:url(#linear-gradient-9);}.cls-33{fill:url(#linear-gradient-10);}.cls-34{font-size:16.53px;font-family:MyriadPro-Regular, Myriad Pro;}</style><clipPath id="clip-path"><rect class="cls-1" x="20.39" y="74.19" width="184.58" height="180.59"/></clipPath><linearGradient id="linear-gradient" x1="294.37" y1="157.48" x2="343.47" y2="206.58" gradientUnits="userSpaceOnUse"><stop offset="0" stop-color="#0074ff"/><stop offset="0.47" stop-color="#0172ff"/><stop offset="0.65" stop-color="#056bff"/><stop offset="0.78" stop-color="#0b5fff"/><stop offset="0.89" stop-color="#154eff"/><stop offset="0.98" stop-color="#2138ff"/><stop offset="1" stop-color="#2432ff"/></linearGradient><linearGradient id="linear-gradient-2" x1="226.72" y1="175.34" x2="269.97" y2="175.34" gradientUnits="userSpaceOnUse"><stop offset="0" stop-color="#2432ff"/><stop offset="0.02" stop-color="#2039ff"/><stop offset="0.11" stop-color="#144eff"/><stop offset="0.21" stop-color="#0b5fff"/><stop offset="0.34" stop-color="#056bff"/><stop offset="0.51" stop-color="#0172ff"/><stop offset="1" stop-color="#0074ff"/></linearGradient><linearGradient id="linear-gradient-3" x1="287.83" y1="254.78" x2="287.83" y2="143.33" gradientUnits="userSpaceOnUse"><stop offset="0" stop-color="#2432ff"/><stop offset="0.1" stop-color="#1c41ff"/><stop offset="0.28" stop-color="#0f58ff"/><stop offset="0.47" stop-color="#0768ff"/><stop offset="0.7" stop-color="#0271ff"/><stop offset="1" stop-color="#0074ff"/></linearGradient><linearGradient id="linear-gradient-4" x1="143.74" y1="249.31" x2="211.85" y2="249.31" gradientUnits="userSpaceOnUse"><stop offset="0" stop-color="#0074ff"/><stop offset="1" stop-color="#73b3ff"/></linearGradient><linearGradient id="linear-gradient-5" x1="185.43" y1="51.95" x2="186.59" y2="51.95" gradientTransform="matrix(1, 0, 0, 0.97, 0, 0.14)" gradientUnits="userSpaceOnUse"><stop offset="0" stop-color="#ffd373"/><stop offset="1" stop-color="#ffb000"/></linearGradient><linearGradient id="linear-gradient-6" x1="178.97" y1="51.6" x2="180.23" y2="51.6" xlink:href="#linear-gradient-5"/><linearGradient id="linear-gradient-7" x1="175.45" y1="63.61" x2="187.83" y2="63.61" xlink:href="#linear-gradient-5"/><linearGradient id="linear-gradient-8" x1="171.55" y1="56.06" x2="173.49" y2="56.06" xlink:href="#linear-gradient-5"/><linearGradient id="linear-gradient-9" x1="189.86" y1="56.56" x2="191.28" y2="56.56" xlink:href="#linear-gradient-5"/><linearGradient id="linear-gradient-10" x1="161.58" y1="51.01" x2="201.22" y2="51.01" xlink:href="#linear-gradient-5"/></defs><title>Obligation Free Consultation</title><g id="Layer_2" data-name="Layer 2"><g id="Illustration"><path class="cls-2" d="M142.25,107.57h49.1l27.46,20.65-.76-20.65a23.19,23.19,0,0,0,23.12-23.12V23.62A23.18,23.18,0,0,0,218.05.5h-75.8a23.19,23.19,0,0,0-23.12,23.12V84.45A23.2,23.2,0,0,0,142.25,107.57Z"/><g class="cls-3"><path class="cls-4" d="M187.38,244.84a3.84,3.84,0,1,0-5.12,1.81A3.85,3.85,0,0,0,187.38,244.84Z"/><path class="cls-4" d="M193.53,240.43h0a5.38,5.38,0,1,1-2.94,10.19l-8.32-4,2.1-7.29Z"/><polygon class="cls-4" points="141.65 211.16 186.01 239.96 182.26 246.65 134.55 223.79 141.65 211.16"/><path class="cls-4" d="M144.24,220.38a7.26,7.26,0,1,1-3.41-9.69A7.26,7.26,0,0,1,144.24,220.38Z"/><polygon class="cls-4" points="119.45 178.52 143.64 213.08 132.33 222.14 103.88 190.98 119.45 178.52"/><polygon class="cls-5" points="132.96 197.81 126.83 216.12 115.6 203.82 132.96 197.81"/><path class="cls-6" d="M116.77,210l16.91-12.42S122,176.22,117.1,177C111.23,177.88,116.77,210,116.77,210Z"/><path class="cls-7" d="M111.33,237.48,88.19,234.4l.21-2.68-27.06,3.6S46.57,274.9,59.71,357.19H78.54l6.56-83.44h2.4l6.78,83.44H113.1C126.24,274.9,111.33,237.48,111.33,237.48Z"/><path class="cls-7" d="M119.47,129.55a42.87,42.87,0,0,1-5.85-14.92c-1.41-6.72-9.18-5.1-9.18-5.1s-5.13-8.78-14.81-7.25-13.8,7.73-15,15.58S67,126.12,61,134.6c-10.56,15,1.81,30.4,28.12,30.08l.07-.25a27.31,27.31,0,0,0,9.34,2.15C129.8,168.87,129.85,145.66,119.47,129.55Z"/><path class="cls-5" d="M107.73,140.13c2.24,2.65,9.11-5.36,7-8.15s-4.53.82-4.53.82l-1.45,2.47-1.3,3.44-.32.9Z"/><path class="cls-8" d="M113.1,134.93s-1.81-1.13-3.9,1.44"/><path class="cls-5" d="M77.63,135.85c-2.68,2.2-8-6.91-5.4-9.27s4.3,1.62,4.3,1.62l1,2.69.66,3.61.16.95Z"/><path class="cls-8" d="M73.28,129.77s2-.78,3.57,2.12"/><path class="cls-7" d="M114.5,123.44c-1.54,11.61-11.12,15.93-22,14.48s-19-8.14-17.49-19.75S86.42,99.85,97.34,101.3,116.05,111.83,114.5,123.44Z"/><rect class="cls-4" x="81.61" y="146.6" width="16.4" height="21.24" transform="translate(21.55 -10.48) rotate(7.59)"/><path class="cls-7" d="M80,143.18s3.77,8,9.46,9.88a10.7,10.7,0,0,0,4.76.42,8.47,8.47,0,0,0,6.25-5.22l.43-1.57S89.93,149.68,80,143.18Z"/><path class="cls-4" d="M111.71,123.89a79.84,79.84,0,0,1-4.36,17.37c-1.55,4.14-4.72,6.76-8.95,8.64l-.77.34a13.57,13.57,0,0,1-13.72-1.67h0c-3.91-3-6.44-6.69-6.74-11.39a117.79,117.79,0,0,1,.49-17.83s.82-18.19,19.13-15.4S111.71,123.89,111.71,123.89Z"/><path class="cls-9" d="M95,135.09l-.2,1.48a1.11,1.11,0,0,1-.13.4,1.13,1.13,0,0,1-1.41.44l-1.1-.46"/><path class="cls-7" d="M92.49,124.83l-10.07,1s.77-2.45,4.89-2.83S92.49,124.83,92.49,124.83Z"/><path class="cls-7" d="M97.62,125.51l9.59,3.63s-.12-2.57-4-4S97.62,125.51,97.62,125.51Z"/><path class="cls-7" d="M100.36,132.05a1.55,1.55,0,0,0,3.08.41,1.55,1.55,0,0,0-3.08-.41Z"/><path class="cls-7" d="M85.77,130.1a1.55,1.55,0,1,0,1.74-1.32A1.55,1.55,0,0,0,85.77,130.1Z"/><path class="cls-10" d="M100.21,140.93l-13.51-1.8s.46,3.84,6.59,4.66A7.23,7.23,0,0,0,100.21,140.93Z"/><path class="cls-7" d="M77.11,125.35s8.66-8.95,8.3-19.23A14.6,14.6,0,0,0,77.24,115C74.88,121.92,77.11,125.35,77.11,125.35Z"/><path class="cls-7" d="M111,129.52s-7.16-11.4-4.12-21.23a17,17,0,0,1,5.93,11.47C113.26,127,111,129.52,111,129.52Z"/><path class="cls-7" d="M79.86,109.41s6.91,12.45,32.94,14.12c0,0-.8-16.54-13.08-19.82C99.72,103.71,85.51,100.06,79.86,109.41Z"/><path class="cls-4" d="M32.9,282.27c-.45.54,34.13-92.16,27.45-91.58-.61.05-12.11-.4-14.25,2.8-6.22,9.3-20.16,87.12-20.16,87.12Z"/><path class="cls-4" d="M25.94,280.61S20.25,296.47,33.32,300a1.87,1.87,0,0,0,2.17-1l.06-.1a1.89,1.89,0,0,0-.73-2.45c-2-1.26-5.08-4.16-2.67-9.5,0,0,2,0,2.54,3.75a1.55,1.55,0,0,0,2,1.24h0a1.56,1.56,0,0,0,1.05-1.47c0-2.55-.45-8.77-5.08-11Z"/><path class="cls-5" d="M42.25,203.85s11.18,19,11.29,18.68S61,198.37,61,198.37L46.26,189.5Z"/><path class="cls-6" d="M81.71,163.33c.53.07-31.18-3.58-42.28,35.6l17.81,5.21-.35,30.64,54.44,2.7,12.62-55s-4.4-8.33-24.48-17Z"/><path class="cls-4" d="M65.6,166.1s3.68,6.53,22,9c18.15,2.42,23.85-3.5,23.85-3.5a86.6,86.6,0,0,0-22.29-10.7A83,83,0,0,0,65.6,166.1Z"/><line class="cls-11" x1="57.24" y1="204.14" x2="58.36" y2="191.04"/><line class="cls-11" x1="117.85" y1="209.06" x2="116.95" y2="199.3"/></g><path class="cls-4" d="M342,195.49c1.7,12.9.32,25.68,0,34.81L324,234l-2.76-35.12Z"/><path class="cls-5" d="M323.53,212s11.44-1,19.27-6.21l-.21-4.54-19.06,2.6Z"/><path class="cls-12" d="M305.18,146.68s36.34,9.14,42.92,55.26c0,0-17.78,7.71-35.61,4.4l4-15.43Z"/><path class="cls-4" d="M195,166.5l28.66,31.31-8.28,23.32s-19.92-29.54-29.16-51.64Z"/><path class="cls-4" d="M195.84,158.58a2.74,2.74,0,0,0-1.55-2.46,2,2,0,0,0-2.89,1.45l-.24,1.11c-1.36-.43-3.52-2-3.73-8.93a2.3,2.3,0,0,0-2-2.25,1.75,1.75,0,0,0-1.8,1.26s0,.08,0,.11a2.18,2.18,0,0,0-1.67-1.07,1.74,1.74,0,0,0-1.79,1.25,1.94,1.94,0,0,0-.07.33,2,2,0,0,0-.95-.33,1.73,1.73,0,0,0-1.79,1.25,2.09,2.09,0,0,0-.09.72c0,.09,0,.18,0,.27l-.11,0a1.73,1.73,0,0,0-1.79,1.25,2.09,2.09,0,0,0-.09.72,25.66,25.66,0,0,0,.63,5.17h0l0,.08a18,18,0,0,0,.61,2c1,3.06,6.67,5.79,10.09,9.72l8.67-3.4Z"/><path class="cls-4" d="M209.92,210.22s5.09,17.62,15.23,15.27,25.95-24,25.95-24l-3.54-37-28.46,35Z"/><path class="cls-5" d="M227.93,188.66s9.6,14.5,17.8,19.61l5.37-6.78-20.7-16Z"/><path class="cls-13" d="M270,145.88s-28.21,6.36-43.25,39.15c0,0,9.08,13.69,23.65,19.77l9.75-12Z"/><path class="cls-14" d="M270,145.78a70.6,70.6,0,0,0-18,13.15l2.17,95.85h69.46l-.23-95.36s-8.75-8.56-18.24-12.74C297.12,143.13,277.8,141.76,270,145.78Z"/><path class="cls-11" d="M293.17,173.16h19.32a0,0,0,0,1,0,0v9.66a9.66,9.66,0,0,1-9.66,9.66h0a9.66,9.66,0,0,1-9.66-9.66v-9.66A0,0,0,0,1,293.17,173.16Z"/><line class="cls-11" x1="323.53" y1="206.69" x2="324.43" y2="175.34"/><line class="cls-11" x1="253.09" y1="201.47" x2="251.59" y2="174.29"/><path class="cls-4" d="M297.89,143.14h0V118.82H275.47v24.32l-6.67,3s1.56,10.08,18.12,10.31,18.21-9.81,18.21-9.81Z"/><path class="cls-7" d="M274.69,124s2,9.53,10.91,10.62c10.24,1.26,13-10.38,13-10.38a16.58,16.58,0,0,1-11.67,5.29A16,16,0,0,1,274.69,124Z"/><path class="cls-7" d="M270.74,110.77l-2.9-14.32a10.17,10.17,0,0,1-.06-4.66c.92-2.8,4.29-8.18,10.05-5.72l1.24,5.67s-6,1.21-8.38,9Z"/><path class="cls-7" d="M277.4,89c-.1,1.88-1.76,10.12-7.6,13.12C269.8,102.15,264.68,91.18,277.4,89Z"/><path class="cls-7" d="M277.83,86.07s4.11-10.85,16.8-5.08c7.68,3.49,9.83,8.18,10.75,11.49a13.6,13.6,0,0,1,.34,3.87l-3.07,14.42-12-20-11.6.92Z"/><path class="cls-5" d="M272.46,110.77a3.72,3.72,0,0,0-4.63-1.22c-3.12,1.18-1.71,8.75,3,9.72a3.71,3.71,0,0,0,3-.79S272.64,112.89,272.46,110.77Z"/><path class="cls-11" d="M268.45,112.22s2.61-.87,4.46,3"/><path class="cls-4" d="M303,103.58c0,4.57-.44,14.12-3.25,19.78-2.63,5.33-7,8.19-12.7,8.36s-10-2-13.38-8.94-3.25-19.11-3.25-19.11,0-16.31,16.11-16.31C303.47,87.36,303,103.58,303,103.58Z"/><path class="cls-11" d="M284.3,111.57v3.78a1.22,1.22,0,0,0,.09.46,1.23,1.23,0,0,0,1.45.67l1.25-.33"/><path class="cls-7" d="M279.54,109.77a1.47,1.47,0,1,1-1.46-1.47A1.46,1.46,0,0,1,279.54,109.77Z"/><path class="cls-7" d="M293.3,109.77a1.47,1.47,0,1,1-1.47-1.47A1.47,1.47,0,0,1,293.3,109.77Z"/><path class="cls-7" d="M288.08,102.47l9.86,2.55s-.45-2.77-4.48-3.77S288.08,102.47,288.08,102.47Z"/><path class="cls-7" d="M282,102.47,272.08,105s.45-2.77,4.49-3.77S282,102.47,282,102.47Z"/><path class="cls-11" d="M280.75,119.21s1.3,1.06,4.71,1.06a11.26,11.26,0,0,0,5-1.06"/><circle class="cls-15" cx="277.68" cy="110.2" r="6.23"/><circle class="cls-15" cx="293" cy="110.2" r="6.23"/><path class="cls-15" d="M283.91,110.2a2,2,0,0,1,2.85,0"/><line class="cls-15" x1="299.23" y1="110.2" x2="303.46" y2="110.13"/><path class="cls-7" d="M275.64,89.4s3,8.51,16.5,8.25c9.18-.18,11.37,6.46,11.37,6.46s-1.59-14.85-2-14.71-14-3.61-14-3.61Z"/><path class="cls-5" d="M302.57,110.77a3.86,3.86,0,0,1,4.71-1.22c3.12,1.18,1.71,8.75-3,9.72a3.71,3.71,0,0,1-3-.79S302.39,112.89,302.57,110.77Z"/><path class="cls-11" d="M306.66,112.22s-2.61-.87-4.46,3"/><circle class="cls-4" cx="329.68" cy="231.61" r="12.43" transform="translate(-46.82 375.07) rotate(-55.95)"/><polygon class="cls-4" points="327.32 219.41 256.89 233.03 257.91 243.87 261.6 243.88 267.06 243.89 329.64 244.05 327.32 219.41"/><line class="cls-16" x1="20.55" y1="31.56" x2="41.64" y2="31.56"/><rect class="cls-17" x="35.86" y="46.83" width="63.36" height="25.38" rx="2.12" transform="translate(135.08 119.04) rotate(-180)"/><line class="cls-18" x1="90.59" y1="55.88" x2="48.09" y2="55.88"/><line class="cls-18" x1="90.59" y1="61.96" x2="73.28" y2="61.96"/><polygon class="cls-17" points="92.31 69.34 92.31 79.23 83.4 69.34 92.31 69.34"/><rect class="cls-17" x="261.62" y="2.14" width="63.36" height="30.88" rx="2.34"/><line class="cls-19" x1="270.25" y1="13.14" x2="312.75" y2="13.14"/><line class="cls-19" x1="270.25" y1="20.54" x2="287.56" y2="20.54"/><polygon class="cls-17" points="268.52 29.52 268.52 41.55 277.43 29.52 268.52 29.52"/><rect class="cls-20" x="320.7" y="45.7" width="43.61" height="37.04" rx="3.6" transform="translate(685.01 128.44) rotate(180)"/><path class="cls-21" d="M3.86,92H34a3.86,3.86,0,0,1,3.86,3.86V124A3.86,3.86,0,0,1,34,127.81H5.09A5.09,5.09,0,0,1,0,122.72V95.83A3.86,3.86,0,0,1,3.86,92Z"/><text class="cls-22" transform="translate(9.52 113.66)">{...}</text><circle class="cls-23" cx="192.31" cy="240.52" r="9.68" transform="translate(-112.18 286.6) rotate(-59.96)"/><rect class="cls-24" x="209.09" y="250.32" width="34.05" height="4.26" transform="translate(452.24 504.89) rotate(180)"/><polygon class="cls-21" points="211.85 254.57 143.74 254.57 143.24 243.88 141.48 205.98 209.58 205.98 211.36 244.04 211.85 254.57"/><ellipse class="cls-10" cx="176.66" cy="230.28" rx="4.85" ry="5.08" transform="translate(-111.51 195.71) rotate(-45.67)"/><polygon class="cls-25" points="211.85 254.57 143.74 254.57 211.36 244.04 211.85 254.57"/><path class="cls-1" d="M227.31,176.31l1.58-12.16Z"/><rect class="cls-10" x="214.1" y="235.62" width="13.38" height="1.42" transform="translate(-85.14 131.41) rotate(-28.02)"/><rect class="cls-26" x="12.8" y="254.57" width="340.46" height="7.09"/><rect class="cls-20" x="3.8" y="171.94" width="7.01" height="6.79" rx="1.71"/><rect class="cls-27" x="346.34" y="130.39" width="7.01" height="6.79" rx="1.71"/><rect class="cls-21" x="69.77" y="6.36" width="7.01" height="6.79" rx="1.71"/><path class="cls-11" d="M191.19,164.67s-4.06-3.54-7-4"/><path class="cls-4" d="M256,232.63a2,2,0,0,1,1.67,1.19c1.12,2.59,3.25,8.17,1.63,9.51a20.57,20.57,0,0,1-4.9,2.94,9.12,9.12,0,0,1-12.33-6c-1-3.41-1.84-6.54-1.74-6.46S251,232.29,256,232.63Z"/><path class="cls-4" d="M245.86,233.18l-15.53,1.88a1.93,1.93,0,0,0-1.7,2.1h0a1.67,1.67,0,0,0,1.73,1.5l11.49-.45Z"/><path class="cls-7" d="M188.8,74.71l-14.71,0a1.19,1.19,0,0,0,0,2.37l14.71,0a1.19,1.19,0,0,0,0-2.36Z"/><path class="cls-7" d="M188.8,78l-14.71,0a1.19,1.19,0,0,0,0,2.37h1.58l1.59,3.13s.76,1,1.16,1.12,4.92.59,6.32,0a2.3,2.3,0,0,0,1.22-1.2c.41-.77,1.27-2.35,1.66-3.06h1.19a1.19,1.19,0,0,0,0-2.37Z"/><path class="cls-7" d="M188.79,71.41l-14.71,0a1.19,1.19,0,0,0,0,2.37l14.71,0a1.19,1.19,0,0,0,0-2.37Z"/><path class="cls-27" d="M208.65,60.07l-3.72-1.8a1.59,1.59,0,0,0-2.12.56v0a1.5,1.5,0,0,0,.57,2.06l3.72,1.81a1.58,1.58,0,0,0,2.12-.56,1.48,1.48,0,0,0,.2-.87A1.38,1.38,0,0,0,208.65,60.07Z"/><path class="cls-27" d="M160,58.85a1.6,1.6,0,0,0-2.13-.54l-3.72,1.82a1.33,1.33,0,0,0-.74,1.22,1.55,1.55,0,0,0,.2.87,1.59,1.59,0,0,0,2.13.54l3.72-1.82a1.5,1.5,0,0,0,.55-2.07Z"/><path class="cls-27" d="M209.84,41l-4.06.84a1.31,1.31,0,0,0-.87.59,1.28,1.28,0,0,0-.21.46,1.67,1.67,0,0,0,0,.8s0,0,0,0a1.34,1.34,0,0,0,1.31,1.1,1.78,1.78,0,0,0,.6,0l4.05-.88C212.61,43.48,211.79,40.58,209.84,41Z"/><path class="cls-27" d="M158.11,43.52A1.32,1.32,0,0,0,157,41.89L153,41a1.57,1.57,0,0,0-1.91,1.06s0,0,0,0a1.53,1.53,0,0,0,1.1,1.86l4.06.83A1.56,1.56,0,0,0,158.11,43.52Z"/><path class="cls-27" d="M201,25.16l0,0a1.6,1.6,0,0,0-2.2,0c-.86,1.05-1.72,2.11-2.59,3.16a1.52,1.52,0,0,0,0,2.14.52.52,0,0,0,.11.1,1.59,1.59,0,0,0,2.1-.11L201,27.3A1.5,1.5,0,0,0,201,25.16Z"/><path class="cls-27" d="M166.58,28.33c-.86-1.06-1.73-2.11-2.59-3.16a1.61,1.61,0,0,0-2.2,0l0,0a1.51,1.51,0,0,0,0,2.14c.88,1,1.75,2.09,2.62,3.14a1.36,1.36,0,0,0,1.2.42,1.62,1.62,0,0,0,1-.44,1.4,1.4,0,0,0,.43-.84A1.75,1.75,0,0,0,166.58,28.33Z"/><path class="cls-27" d="M181.4,18.39h0a1.55,1.55,0,0,0-1.57,1.5c0,1.35,0,2.7,0,4.05a1.54,1.54,0,0,0,1.54,1.52h0a1.47,1.47,0,0,0,1-.38A1.36,1.36,0,0,0,183,24c0-1.34,0-2.69,0-4A1.54,1.54,0,0,0,181.4,18.39Z"/><path class="cls-28" d="M186.46,50.62a.73.73,0,0,0,.08-.67c-.09-.15-.19-.22-.29-.22s-.51.29-.66.57a2.16,2.16,0,0,0-.11,1.35A3,3,0,0,0,186.46,50.62Z"/><path class="cls-29" d="M180.14,50.05a1,1,0,0,0,0-.78s0-.05-.1-.06a.94.94,0,0,0-.23.06,1.25,1.25,0,0,0-.64.66,1.89,1.89,0,0,0-.1,1.55l.11-.13A6.8,6.8,0,0,0,180.14,50.05Z"/><path class="cls-30" d="M175.45,56.41a90.41,90.41,0,0,1,5.28,14.21H183a91.92,91.92,0,0,1,4.87-13.44,6.28,6.28,0,0,1-3.24-3.52,6.57,6.57,0,0,1-3.14.44,6.05,6.05,0,0,1-2.32-.63A12.16,12.16,0,0,1,175.45,56.41Z"/><path class="cls-31" d="M172.11,53.8H172c-.18,0-.4.07-.44.23a.88.88,0,0,0,.23.77,2.22,2.22,0,0,0,1.57.79h.12c-.11-.23-.24-.47-.36-.7C172.88,54.38,172.57,53.87,172.11,53.8Z"/><path class="cls-32" d="M191.08,54.21h0s-.19.06-.54.6l0,0-.65,1.29a1.87,1.87,0,0,0,1.14-.47,1.11,1.11,0,0,0,.28-.88C191.25,54.39,191.14,54.24,191.08,54.21Z"/><path class="cls-33" d="M181.37,28.93a19.57,19.57,0,0,0-19.79,19.32,19.25,19.25,0,0,0,11.54,17.49v3.75a1.15,1.15,0,0,0,1.17,1.14h5a88.47,88.47,0,0,0-5.15-13.77,3.35,3.35,0,0,1-2.92-.77,2.79,2.79,0,0,1-1-2.14,1.54,1.54,0,0,1,.77-1.2,2.05,2.05,0,0,1,1-.31,3,3,0,0,1,2.39,1.79l.47.92a10,10,0,0,0,3.25-2.57,2.73,2.73,0,0,1-.51-1.28,3.89,3.89,0,0,1,1-2.76,1.69,1.69,0,0,1,2.39-.35,1.67,1.67,0,0,1,.76,1.16c.15,1-.79,2.16-1.47,3l-.1.1a3.3,3.3,0,0,0,.63.2,5.64,5.64,0,0,0,3-.09l.43-.18a8.13,8.13,0,0,1-.13-.84,2.86,2.86,0,0,1,1.07-2.75,1.94,1.94,0,0,1,1.17-.41,1.39,1.39,0,0,1,1,.41,2,2,0,0,1,.62,1.58,3.78,3.78,0,0,1-1.67,2.38l-.43.28a4.84,4.84,0,0,0,2.54,3c.29-.59.59-1.18.88-1.75l.08-.12c.26-.38.93-1.25,1.76-1.25a1.29,1.29,0,0,1,.85.34,2.42,2.42,0,0,1,.51,2.69,2.85,2.85,0,0,1-2.85,1.68,3.1,3.1,0,0,1-.43,0,90.93,90.93,0,0,0-4.79,13.09h4.15a1.17,1.17,0,0,0,1.17-1.15V65.72a19.28,19.28,0,0,0,11.49-17.53A19.57,19.57,0,0,0,181.37,28.93Z"/><text class="cls-34" transform="translate(329.81 69.07)">&lt;/&gt;</text></g></g></svg>