<svg id="Layer_1" data-name="Layer 1" xmlns="http://www.w3.org/2000/svg" xmlns:xlink="http://www.w3.org/1999/xlink" viewBox="0 0 2000 560"><defs><style>.cls-1{fill:#1d1c44;}.cls-2{fill:#004be0;}.cls-3{fill:url(#linear-gradient);}.cls-4{fill:url(#linear-gradient-2);}</style><linearGradient id="linear-gradient" x1="505.38" y1="341.23" x2="593.27" y2="253.33" gradientUnits="userSpaceOnUse"><stop offset="0" stop-color="#0074ff"/><stop offset="1" stop-color="#0074ff" stop-opacity="0.7"/></linearGradient><linearGradient id="linear-gradient-2" x1="366.19" y1="-363.86" x2="490.49" y2="-363.86" gradientTransform="translate(372.88 822.84) rotate(-45)" gradientUnits="userSpaceOnUse"><stop offset="0" stop-color="#0074ff" stop-opacity="0.7"/><stop offset="1" stop-color="#0074ff"/></linearGradient></defs><title>Codedigm_Assets</title><path class="cls-1" d="M253.07,205.15c-12-5.82-25.69-8.78-40.67-8.78a87.4,87.4,0,0,0-42.54,10.83,80.42,80.42,0,0,0-31.12,30.16,81.76,81.76,0,0,0-11.24,41.86c0,24.16,8.15,44.49,24.23,60.42s36.83,24,61.74,24c25.66,0,46.93-8.46,63.22-25.13a17,17,0,0,0-24-24.13c-10.85,10.69-22.9,15.88-36.84,15.88-16.15,0-28.83-4.66-38.75-14.25S162.44,295,162.44,280.68s4.91-26,15-35.83,22-14.71,36-14.71c15.29,0,28.07,5.42,39.07,16.57a17.05,17.05,0,0,0,24.69-23.51A79.63,79.63,0,0,0,253.07,205.15Z"/><path class="cls-1" d="M800.43,221.08a72.79,72.79,0,0,0-27.56-16.18c-10.34-3.37-25.91-5-47.58-5H686.16V360.11H740.9c20.94,0,36.69-3.38,48.13-10.33a69.65,69.65,0,0,0,26.28-28.7,84.15,84.15,0,0,0,9-38.15c0-13.14-2-25-6.07-35.2A73.17,73.17,0,0,0,800.43,221.08ZM776,316.55a35.87,35.87,0,0,1-15.94,7.86c-6.89,1.54-18.4,2.33-34.21,2.33h-6.14V233.65c15.33,0,27.17.78,35.16,2.29a44.13,44.13,0,0,1,18.79,8.12,39,39,0,0,1,12.07,15.56,57.62,57.62,0,0,1,.71,42.48A38,38,0,0,1,776,316.55Z"/><path class="cls-1" d="M1004.28,233.85A16.9,16.9,0,0,0,1021.16,217v-.19a16.9,16.9,0,0,0-16.88-16.88H911V360.11h92.68a16.9,16.9,0,0,0,16.89-16.88V343a16.91,16.91,0,0,0-16.89-16.89H945.16V291.22h57.66a16.88,16.88,0,0,0,0-33.76H945.16V233.85Z"/><path class="cls-1" d="M1107.84,199.6h34.26q34.71,0,50.53,5.17a70.92,70.92,0,0,1,45,42.5q6.15,15.6,6.15,36a84.65,84.65,0,0,1-9.12,38.55,68.31,68.31,0,0,1-25.92,28.33q-16.8,10.21-49.09,10.22h-51.84Zm18.23,142.78h16.69q27.9,0,40.64-2.85a50.39,50.39,0,0,0,22.19-11A53.06,53.06,0,0,0,1220,308.67q4.93-11.76,4.94-27.13a69.34,69.34,0,0,0-5.82-28.45,54.07,54.07,0,0,0-16.59-21.31,58.88,58.88,0,0,0-25.26-11q-14.49-2.75-41.51-2.74h-9.67Z"/><path class="cls-1" d="M1339.93,360.4h0a9.45,9.45,0,0,1-9.45-9.45V209.05a9.45,9.45,0,0,1,9.45-9.45h0a9.44,9.44,0,0,1,9.44,9.45V351A9.44,9.44,0,0,1,1339.93,360.4Z"/><path class="cls-1" d="M1607.39,281.76q-.66,39.09-22.74,60.84t-58.1,21.75q-41.29,0-65.9-25.37t-24.6-59.42q0-34,24.6-59t63.48-24.93a98.1,98.1,0,0,1,39.21,7.8A118.72,118.72,0,0,1,1591,220.52a9.12,9.12,0,0,1,.55,13.68l-1.14,1.09a9.08,9.08,0,0,1-12.08.45,97,97,0,0,0-23-14.5,78.38,78.38,0,0,0-32.07-6.92q-16.48,0-32.73,8.79a66.34,66.34,0,0,0-25.48,23.72,60.25,60.25,0,0,0-9.23,32.29q0,27,20.32,47.12t50.85,20.1q22.62,0,39.1-12.41T1586.3,300h-41a9.11,9.11,0,0,1-9.11-9.12h0a9.11,9.11,0,0,1,9.11-9.11Z"/><path class="cls-1" d="M1863.28,360.4h0a9.23,9.23,0,0,1-9.13-8L1840.31,251l-52.77,106.83a4.62,4.62,0,0,1-4.13,2.57h0a4.6,4.6,0,0,1-4.12-2.56l-53.43-107.71L1712,352.6a9,9,0,0,1-8.92,7.8h0a9,9,0,0,1-8.91-10.27l21.39-150.53h4.61l63.26,127.63,62.83-127.63h4.61l21.55,150.27A9.21,9.21,0,0,1,1863.28,360.4Z"/><path class="cls-2" d="M593.36,283a20.91,20.91,0,0,0,0-29.56L450.09,110.15h0a41.93,41.93,0,0,0,0,59.31l98.75,98.74,29.65,29.65Z"/><path class="cls-2" d="M374.48,277a20.91,20.91,0,0,0,0,29.56L517.75,449.85h0a41.93,41.93,0,0,0,0-59.31L419,291.8l-29.65-29.65Z"/><path class="cls-3" d="M548.75,268.11l-29.57,29.75a40.42,40.42,0,0,0,0,57.17l1.07,1.07L593.36,283a20.91,20.91,0,0,0,0-29.56l-15-15Z"/><path class="cls-4" d="M419,291.8l29.66-29.66a40.42,40.42,0,0,0,0-57.17l-1.07-1.07L374.48,277a20.91,20.91,0,0,0,0,29.56l14.87,14.87Z"/></svg>